<?xml version="1.0" encoding="utf-8"?>
<!-- Generator: Adobe Illustrator 25.0.0, SVG Export Plug-In . SVG Version: 6.00 Build 0)  -->
<svg version="1.1" xmlns="http://www.w3.org/2000/svg" xmlns:xlink="http://www.w3.org/1999/xlink" x="0px" y="0px"
	 viewBox="0 0 2500 2500" style="enable-background:new 0 0 2500 2500;" xml:space="preserve">
<style type="text/css">
	.st0{fill:#99FFFF;}
	.st1{opacity:0.28;fill:#FF9694;}
	.st2{fill:#FFECDC;}
	.st3{fill:#FFB5AB;}
	.st4{fill:#FF9994;}
	.st5{fill:#FFFFFF;}
	.st6{fill:#CB8A60;}
	.st7{fill:#B76C4D;}
	.st8{fill:#DDAA75;}
	.st9{fill:#FF979E;}
	.st10{fill:#FAF5F2;}
	.st11{fill:#E5E6E7;}
	.st12{fill:#FFAD12;}
	.st13{fill:#FD951B;}
	.st14{fill:#FFCFE9;}
	.st15{fill:#FC7C88;}
	.st16{opacity:0.4;fill:#FC7C88;}
	.st17{fill:#891D1D;}
	.st18{fill:#6D1D17;}
	.st19{fill:#E87070;}
	.st20{opacity:0.45;fill:#6D1D17;}
</style>
<g id="BG">
</g>
<g id="Design">
	<path class="st0" d="M1992.27,2500H507.73C227.32,2500,0,2272.68,0,1992.27V507.73C0,227.32,227.32,0,507.73,0h1484.54
		C2272.68,0,2500,227.32,2500,507.73v1484.54C2500,2272.68,2272.68,2500,1992.27,2500z"/>
	<g>
		<ellipse class="st1" cx="1490.85" cy="2351.91" rx="710.83" ry="148.09"/>
		<path class="st2" d="M1843.77,985.96c-7.02-4.77-14.44-6.63-21.69-6.32c-0.11-0.2-0.22-0.4-0.33-0.6
			c-2.82-4.85-7.75-7.42-13.07-8.04c6.75-65.8,15.75-131.34,27.14-196.56c2.81-16.1-18.22-29.15-31.08-18.35c-1.19,1-2.38,2-3.56,3
			c-10.48-52.06-23.06-103.61-38.21-154.57c-13.04-43.87-22.22-111.82-66.44-135.59c-12.5-6.72-28.39,6.59-26.11,19.83
			c15.25,88.47,8.54,176.81-21.85,260.51c-3.86-3.76-7.73-7.53-11.59-11.29c-14.99-14.61-36.07,6.03-30.36,22.75
			c4.89,14.33-13.81,27.13-24.89,29.65c-8.16,1.86-17.31,1.42-25.59,1.16c-17.51-0.54-35.07-2.3-52.54-3.48
			c-28.9-1.95-57.81-3.63-86.73-5.28c-1.61-18.07-7.78-34.39-19.2-50.29c-5.67-7.9-16.97-9.25-24.69-4.17
			c-6.11-48.44,1.69-97.26,8.18-145.9c7.63-57.25,14.4-114.73,23.43-171.77c3-18.94-24.71-26.12-32.15-8.7
			c-30.73,72.02-57.26,145.89-85.22,219.03c-13.61,35.61-26.91,71.34-40.58,106.92c-2.19,5.69-4.08,13.63-7.92,18.52
			c-11.35,14.45-28,6.55-40.67-1.73c-16.78-10.95-30.81-24.83-43.22-40.49c-6.64-8.38-20.97-9.92-27.63-0.34
			c-16.26,23.4-32.79,46.64-48.79,70.22c-4.97,7.32-21.67,36.22-38.51,51.82c-29.86-27.7-76.9-38.18-117.36-30.7
			c-71.99,13.31-121.71,81.9-131.52,151.49c-4.77,33.84-1.2,71.97,18.03,101.12c20.51,31.08,53.94,43.87,88.87,51.47
			c18.73,4.07,38.11,6.2,56.39,12.15c23.91,7.78,40.19,23.33,57.36,41c28.46,29.29,58.88,52.16,97.52,66.45
			c45.66,16.89,93.83,21.9,141.89,26.79c19.77,2.01,42.72,3.62,59.42,15.49c32.6,23.17,5.81,67.77-30.77,58.05
			c-16.48-4.38-24.06,23.51-7.85,29c12.69,4.3,26.1,5.56,38.8,3.87c12.41,9.23,23.9,18.87,33.51,32.43
			c17.58,24.8,10.74,45.23-7.63,61.58c-14.09-30.75-56.95-47.04-90.74-54.78c-1.41-23.2-36.35-35.28-43.46-9.52
			c-22.46,81.39-62.7,175.46-38.82,260.49c18.61,66.28,78.4,115.43,149.1,99.45c73.07-16.51,115.57-81.79,146.88-144.24
			c9.56-19.07,18.51-38.48,28.97-57.09c10.59-18.83,25.27-34.53,36.29-52.87c7.45-12.39,10.55-25.42,8.59-39.83
			c-2.03-14.97-16.56-35.45-11.03-49.97c4.86-12.75-2.76-29.42-17.57-30.61c-75.11-6-42.54-115.84-33.52-172.64
			c80.87-0.65,162.52,3.71,242.31,16.83c36.12,5.94,49.9,10.33,78.07-15.77c22.28-20.63,30.46-43.19,41.36-70.45
			c9.98-24.97,26.5-43.76,29.81-72.05C1865.34,1031.23,1864.06,999.76,1843.77,985.96z"/>
		<path class="st2" d="M1821.16,1571.92c-13.8-33.13-28.52-65.91-42.74-98.86c-1.4-3.24-2.76-6.48-4.13-9.71
			c-3.12-19.26-9.96-37.69-18.28-50.05c-11.82-17.57-34.4-35.33-55.22-18.89c-9.98,7.89-12.09,22.61-14.68,34.25
			c-0.96,4.34-1.99,8.7-2.99,13.08c-21.33,33.73-9.13,97.05,31.42,104.96c-3.66,32.58,0.22,64.44,12.85,96.76
			c4.89,12.5,20.34,19.53,32.89,14.17c19.09-8.15,41.04-4.07,57.07-19.69C1836.7,1619.08,1830.34,1593.96,1821.16,1571.92z"/>
		<path class="st2" d="M1681.12,2055.62c0.38-10.49-5.65-22.36-17.56-23.23c-4.51-3.47-10.17-5.34-15.57-4.31
			c-5.47,1.04-10.94,2.01-16.41,2.95c-36.65-0.81-73.1,0.97-109.76,5.04c-7.05,0.78-12.57,4.78-16.19,10.17
			c-0.51,0.15-1.01,0.32-1.52,0.47c-3.98-8.09-11.44-14.33-21.52-12.56c-50.52,8.84-101.18,13.28-152.47,13.34
			c-4.3,0.01-7.72,1.13-10.46,2.88c-4.36,0.03-8.44,1.17-12.01,3.19c-2-5.52-4.21-10.96-6.96-16.19
			c-5.62-10.66-21.8-7.56-20.88,5.34c0.08,1.13,0.17,2.34,0.26,3.54c-2.68,3.14-4.33,7.24-4.25,11.2c-0.08-0.03-0.16-0.07-0.24-0.1
			c1.84,11.63,5.83,25.63,11.79,38.65c3.36,12.96,8.2,24.96,15.39,33.23c16.63,19.14,49.72,21.99,72.85,26.54
			c28.24,5.56,65.01,12.43,93.41,3.6c12.51-3.89,19.26-13.24,23.21-24.64c1.69-1.43,3.34-2.94,4.92-4.65
			c4.41-4.8,7.58-10.1,9.85-15.71c10.7,16.33,36.17,13.48,53.55,12.72c20.33-0.89,45.76-3.39,68.02-10.98
			c8.96,3.96,20.37,1.74,26.21-10.49c0.54-1.12,0.94-2.28,1.45-3.41C1670.56,2091.7,1680.35,2076.81,1681.12,2055.62z"/>
		<path class="st3" d="M932.69,1000.63c-13.08-18.49-41.04-21.26-59.17-8.63c-17.52,12.21-21.17,35.43-11.91,53.75
			c8.26,16.34,24.11,28.84,39.4,38.37c17.74,11.05,39.65,19.58,58.33,4.79C993.87,1061.6,961.24,1017.94,932.69,1000.63z"/>
		<path class="st3" d="M1224.45,776.63c-11.88-11.96-27.68-14.68-36.04-30.5c-7.25-13.73-10.23-27.54-20.36-39.89
			c-13.88-16.93-39.13-13.86-48.5,5.95c-12.4,26.23-27.55,50.08-44.29,73.73c-13.71,19.37-31.24,39.08-34.09,63.3
			c-1.5,12.73,10.54,20.85,22.07,17.24c25.54-7.99,45.39-34.77,61.25-55.32c7.5-9.72,14.47-19.91,21.09-30.33
			c3.62,6.38,7.98,12.46,14.06,17.86c16.91,15.02,37.79,23.97,59.5,14.99C1235.68,806.84,1235.66,787.92,1224.45,776.63z"/>
		<path class="st3" d="M1399.3,417.55c-1.32-10.58-13.6-12.27-20.16-5.59c-24.22,24.67-35.48,64.3-47.99,95.97
			c-13.61,34.45-26.28,69.53-37.51,104.83c-17.63,55.44-51.51,136.04-29.7,193.39c4.52,11.88,24.47,16.99,31.79,4.55
			c15.24-25.89,18.04-55.78,24.11-84.86c2.9-13.92,6.39-27.66,10.08-41.35c-0.33,34.84,4.06,69.87,20.83,97.52
			c3.4,5.61,12.98,4.11,15.06-1.85c16.98-48.66,7.53-108.17,11.63-159.33c4.55-56.78,19.06-112.39,22.52-169.14
			c0.11-1.73-0.35-3.42-1.15-4.94C1400.13,437.01,1400.51,427.25,1399.3,417.55z"/>
		<path class="st3" d="M1810.3,759.41c-6.62,3.22-12.53,7.31-18.19,11.74c-3.63-64.46-14.87-129.21-37.81-189.42
			c0.77-44.92-6.34-91.67-37.1-118.03c-5.59-4.79-16.9-1.15-16.96,6.91c-0.11,15.89,1.76,31.66,3.25,47.47
			c-1.44,2.18-2.15,4.79-1.64,7.62c1.1,6.12,2.21,12.23,3.32,18.33c0.07,3.11,0.09,6.23,0.01,9.36c-0.84,32.57-3.74,65.5-9.29,97.59
			c-5.56,32.18-13.87,63.89-24.89,94.63c-9.08,25.32-28.93,54.51-22.18,81.8c2.56,10.34,12.03,18.23,23.13,13.71
			c30.22-12.3,40.82-51.77,50.62-80.36c4.57-13.34,8.49-26.88,12.07-40.5c4.35,35,7.32,70.25,7.85,106.09
			c0.32,21.11,26.2,26.58,40.84,17.51c23.95-14.85,49.94-35.82,50.27-66.23C1833.75,766,1823.15,753.16,1810.3,759.41z"/>
		<path class="st3" d="M1326.22,1451.5c-0.31-3.27-1.41-6.39-3.76-8.83c-1.07-1.12-2.22-2.1-3.3-3.2
			c-21.09-30.5-61.44-61.52-97.96-59.81c-11.07,0.52-17.48,15.7-10.32,24.06c11.33,13.24,26.78,21.98,40.19,32.92
			c14.04,11.46,25.12,24.44,37.37,37.65C1307.11,1494.43,1335.6,1474.88,1326.22,1451.5z"/>
		<path class="st3" d="M1853.91,1090.3c-6.57-18.18-15.6-31.99-18.68-51.84c-2.66-17.18-3.8-34.16-8.18-51.05
			c-2.28-8.78-15.01-7.21-18.14-0.14c-15.53,35.01-19.32,99.46,16.64,124.29C1840.44,1121.84,1860.27,1107.91,1853.91,1090.3z"/>
		<path class="st3" d="M1778.96,1645.77c-6.31-41.66-10.01-83.61-11.19-125.72c-0.34-12.12-13.7-20.53-24.75-19.33
			c-22.77,2.47-45.25-1.61-67.46,4.58c-10.77,3-10.21,17.21-3.35,23.38c14.34,12.91,32.69,16.38,51.37,16.81
			c0.33,35.53,3.04,70.7,8.6,106.02C1736.91,1681.43,1783.52,1675.85,1778.96,1645.77z"/>
		<path class="st3" d="M1435.15,1615.35c-42.33,26.44-72.71,62.01-121.35,77.88c-52.14,17.02-88.1-26.24-132.93-43.73
			c-7.22-2.82-15.13,4.42-12.06,11.87c22.38,54.17,83.4,95.41,143.25,83.62c30.78-6.06,47.24-25.12,67.09-47.18
			c24-26.67,45.21-46.37,58.79-80.28C1438.65,1615.77,1436.64,1614.42,1435.15,1615.35z"/>
		<path class="st3" d="M1673.41,2043.61c-19.18-11.1-41.91-6.03-63.18-3.99c-25.43,2.44-51.61,3.69-76.72,8.32
			c-17.04,3.14-25.59,11.28-29.85,22.28c-0.5-3.48-0.93-6.95-1.6-10.43c-2.78-14.54-21.73-14.19-25.51-2.44
			c-10.99-1.68-23.23-0.53-32.45-0.93c-53.53-2.32-105.09-10.71-158.05-17.95c-9.11-1.25-13.92,10.66-6.88,16.33
			c26.66,21.49,57.19,30.71,90.69,35.67c32.25,4.77,66.03,1.93,98.17,5.93c4.59,13.28,6.99,28.32,11.47,41.13
			c5.6,16.02,26.32,8.97,27.86-5.23c9.4,4.75,24.42,0.4,26.11-12.36c0.9-6.75,1.4-13.36,1.82-20.16c0.63-10.12-0.98-16.1,4.6-19.66
			c8.7-5.55,39.77-4.61,50.63-6.12c26.85-3.72,63.01-1.64,84.11-20.35C1678.22,2050.48,1677.37,2045.91,1673.41,2043.61z"/>
		<path class="st3" d="M1543.43,1014.19c-0.29-1.13-0.57-2.25-0.86-3.38c-0.62-1.75-1.62-3.22-3-4.4c-0.75-1-1.71-1.74-2.86-2.23
			c-1.48-1.05-3.15-1.67-4.99-1.85c-1.16-0.01-2.33-0.01-3.49-0.02c-2.38,0.3-4.54,1.16-6.47,2.58c-0.12,0.08-0.25,0.15-0.37,0.23
			c-2.02,1.52-3.52,3.44-4.5,5.76c-0.31,1.15-0.62,2.29-0.93,3.44c-0.31,2.38-0.02,4.69,0.85,6.92c0.62,1.76,1.63,3.24,3.02,4.43
			c1.19,1.45,2.68,2.51,4.47,3.18c1.67,0.77,3.4,1.08,5.2,0.94c1.78,0.16,3.5-0.13,5.16-0.86c2.3-0.92,4.22-2.36,5.75-4.31
			c0.08-0.12,0.15-0.25,0.23-0.37c1.21-1.44,1.98-3.06,2.31-4.87C1543.55,1017.71,1543.72,1015.98,1543.43,1014.19z"/>
		<path class="st3" d="M1455.78,1262.24c-0.82-0.03-1.65-0.07-2.47-0.1c-1.21-0.38-2.47-0.6-3.71-0.91
			c-16.66-6.08-36.75-2.71-54.53-3.48c-24.85-1.07-50.7-5.45-75.35-1.23c-4.35,0.75-7.5,5.56-6.72,9.66
			c-0.57,2.12-0.1,4.49,1.92,5.79c2.33,1.5,4.88,2.76,7.42,4.02c-0.83,1.51-1.53,3.13-1.96,4.94c-1.89,7.97-1.16,17.1-2.27,25.34
			c-0.51,3.82-0.87,7.7-0.88,11.55c-0.86,0.01-1.72,0.01-2.62-0.08c-4.22-1.49-8.62-2.66-13.22-3.44
			c-19.58-3.32-28.94,28.12-9.28,34.29c26.76,11.44,42.25,29.89,60.46,51.8c7.11,8.56,19.24,8.88,26.53,0.32
			c17.63-20.68,30.76-74.91,64.73-71.38c7.35,0.76,15.5-4.35,16.1-12.27c0.97-12.74,2.53-22.68,7.3-34.91
			C1470.35,1274.16,1465.46,1262.64,1455.78,1262.24z"/>
		<path class="st4" d="M1810.96,1166.12c5.01-11.46,6.85-28.16,4.85-41.66c-2.04-13.74-6.65-26.78-12.55-39.26
			c-64.03,4.25-113.88,37.45-113.88,77.8c0,26.61,21.73,50.09,54.86,64.23C1772.05,1213.02,1798.72,1194.16,1810.96,1166.12z"/>
		<path class="st5" d="M1402.35,965.4c0,82.24-48.99,138.79-117.92,138.79c-68.94,0-123.47-55.72-123.47-137.96
			c0-82.24,55.88-148.91,124.82-148.91S1402.35,883.16,1402.35,965.4z"/>
		<path class="st5" d="M1800.19,964.08c0,73.31-41.25,132.39-110.19,132.39s-105.84-61.66-105.84-134.97
			c0-73.31,36.9-130.51,105.84-130.51S1800.19,890.77,1800.19,964.08z"/>
		<ellipse class="st4" cx="1174.33" cy="1149.2" rx="127.79" ry="78.28"/>
		<path class="st6" d="M2038.17,572.24c-3.91-21.9-9.84-48.41-19.31-73.21c3.5-4.86,5.34-11.24,4.31-19.04
			c-14.21-107.13-139.84-149.37-197.01-228.31c-30.44-42.03-52.7-85.42-96.08-116.33c-39.01-27.8-84.03-44.78-129.96-57.2
			c-210.39-56.93-468.2-85.04-659.97,40.52c-50.62,33.14-94.42,76.68-134.25,121.93c-17.86,20.29-36.4,53.28-58.84,68.19
			c-0.76,0.51-1.54,0.94-2.32,1.35c-78.53-23.78-166.35,10.91-227.18,62.96C441.73,438,395.81,530.54,366.31,624.34
			c-32.7,104.02-46.43,212.68-52.63,321.22c-6.29,110.05-11.8,218.51,16.96,325.88c36.02,134.49,68.98,269.32,95.37,406.07
			c2.29,11.89,11.55,17.74,21.06,18.48c1.86,17.11,3.98,34.21,4.27,50.84c0.36,20.77,0.22,41.64-0.83,62.38
			c-0.14,2.82-7.65,72.58-16.4,61.42c-11.33-14.45-32.88-1.62-27.41,15.28c20.3,62.68,106.7,75.23,173.78,75.9
			c1.97,3.93,5.37,7.28,10.4,9.34c2.65,1.08,5.3,2.17,7.94,3.25c0.96,6,4.15,11.52,9.6,14.32c-3.39,10.09,0.69,21.8,11.79,26.84
			c24.44,11.11,48.43,15.06,74.9,9.15c31.93-7.13,48.41-31.36,76.37-44.45c25.23-11.82,47.48-19.11,68.02-39.22
			c20.25-19.82,35.42-44.99,44.74-71.71c22.8-65.36,11.86-135.43,2.29-202.17c-8.62-60.1-12.57-124.2-26.97-184.21
			c4.91-53.1-12.15-112.07-23.88-161.42c-7.9-33.25-16.57-66.32-24.54-99.55c-3.11-12.98-5.68-26.44-8.57-39.82
			c30.48,31.51,77.77,51.86,114.19,67.05c14.52,6.05,29.45,12.93,44.89,16.59c1.25,3.41,2.74,6.74,4.51,9.98
			c4.49,8.21,15.1,8.83,19.56,0.15c1.24-2.42,2.29-4.88,3.24-7.38c13.97-0.13,27.98-1.75,41.98-0.95
			c38.95,2.21,73,11.36,109.81-6.99c12.06-6.01,15.58-26.48,0.25-31.57c-52.95-17.57-110.14-37.91-143.52-84.35
			c0.63-11.41,1.39-22.81,2.51-34.19c6.02-61.09,16.91-117.49,35.98-175.84c2.07-6.32-6-11.82-10.47-6.12
			c-36.11,46.07-56.58,107.78-63.82,165.43c-0.65,5.17-1.15,10.37-1.67,15.56c-40.9-4.22-78.69-3.47-116.07-29.15
			c-45.34-31.14-69.12-83.44-64.52-138.08c4.64-55.17,37.38-110.02,95.63-118.14c51.45-7.17,115.47-11.5,158.06,23.1
			c9.73,7.9,22.28,4.55,30.26-3.72c23.92-24.81,46.95-50.42,68.45-77.35c6.72,21.15,19.21,39.97,38.93,52.41
			c20.5,12.93,44.75,10.26,63.6-4.21c23.16-17.78,28.39-47.69,35.31-74.29c26.04-100.12,62.7-197.28,108.29-290.08
			c-15.25,110.35-17.33,221.92-5.1,333.55c1.17,10.64,10.3,19.79,20.89,21.15c63.28,8.11,127.18,9.67,190.74,3.74
			c22.45-2.09,51.67-1.99,70.95-15.79c18.86-13.51,20.57-35.13,22.09-56.36c2.06-28.78,3.42-57.61,4.38-86.46
			c17.16-27.8,18.97-66.1,20-98c0.85-26.19-1.31-51.92-4.43-77.56c3.53,3.58,7.03,7.16,10.49,10.77
			c13.18,42.79,30.86,84.33,40.84,128.33c12.02,53.03,17.86,107.84,20.87,162.05c1.14,20.49,27.97,24.69,39.76,11.03
			c5.26-6.1,10.75-11.99,16.31-17.81c5.7,58.94-0.54,118.28-19.18,175.05c-5.89,17.93,15.94,41.95,32.93,25.73
			c40.36-38.54,94.68-51.82,130.32-97.57c32.49-41.7,52.54-93.54,64.13-144.72C2045.36,676.78,2047.25,623.15,2038.17,572.24z
			 M995.54,1199.03c11.72,9.91,24.54,18.38,38.15,25.66c-2.63-0.29-5.26-0.54-7.85-0.7c-10.04-0.61-20.21-0.03-30.3-0.19
			C995.61,1215.5,995.44,1207.19,995.54,1199.03z"/>
		<path class="st7" d="M750.67,798.35c-6.39-8.08-12.86-20.89-23.42-23.74c-3.62-0.98-8.47-0.22-9.8,4.04
			c-3.86,12.37,4.48,24.12,10.98,34.19c6.45,9.99,16.2,25.03,28.84,26.56c7.19,0.87,12.45-5.03,12.06-11.92
			C768.71,816.51,757.21,806.62,750.67,798.35z"/>
		<path class="st7" d="M1697.13,451.97c-1.32-11.89-20.34-12.52-21.32-0.13c-2.67,33.86-5.59,67.7-8.45,101.54
			c-2.83,33.56-3.64,71.51-20.35,101.55c-9.33,16.76-25.38,35.22-42.93,16.89c-11.28-11.78-15.27-42.2-18.44-57.56
			c-0.66-3.2-1.24-6.42-1.82-9.64c0.47-13.74,0.74-27.51,0.99-41.29c1.11-62.46,0.85-125.86-9.27-187.62
			c-2.09-12.74-21.33-13.63-23.06-0.14c-8.01,62.28-8.3,125.66-9.91,188.39c-0.78,30.48-2.15,60.98-1.88,91.38
			c-0.78,1.99-1.6,3.95-2.59,5.73c-18.61,33.56-56.21,7.94-71.2-13.46c-13.19-18.84-19.12-42.72-22.59-65.03
			c-13.65-87.81,0.3-178.56-10.03-266.98c-1.04-8.94-14.01-8.76-15.48-0.09c-6.71,39.62-10.4,80.14-12.77,120.69
			c-4.46-3.49-11.67-3.23-14.05,3.28c-18.92,51.72-18.31,112.69-19.54,167.2c-1.16,51.82-6.67,113.48,5.06,164.05
			c8.15,35.16,56.28,43.92,87.57,46.33c52.24,4.02,101.5-23.58,153.37-15.43c13.22,2.08,23.16-7.88,26.01-19.82
			c1.73-7.24,2.8-14.58,3.1-21.75c0.84,3.01,1.72,6.01,2.52,9.04c3.83,14.51,22.43,7.71,25.34-3.11
			C1703.15,662.99,1708.95,558.19,1697.13,451.97z M1412.09,642.87c-0.11-5.65-0.2-11.31-0.27-16.96
			c1.62,5.55,3.53,10.98,5.68,16.32C1415.7,642.28,1413.89,642.48,1412.09,642.87z M1659.27,698.19c-0.94-1.23-1.96-2.45-3.18-3.66
			c-1-1-2.28-1.59-3.65-1.9c3.67-4.69,6.89-9.84,9.69-15.32C1661.23,684.29,1660.25,691.24,1659.27,698.19z"/>
		<path class="st7" d="M1795.75,585.54c-11.74-46.89-36.36-105.34-81.78-128.43c-6.25-3.18-12.87,4.26-10.45,10.29
			c9.18,22.83,23.46,43.35,33.58,65.86c11.22,24.96,19.19,51.53,24.95,78.25c11.25,52.18,4.9,113.35,25.3,162.53
			c2.23,5.39,10.56,5.84,12.76,0.1C1821.16,719.05,1809.71,641.29,1795.75,585.54z"/>
		<path class="st7" d="M1844.23,611.04c-4.16-5.52-12.1-2.75-13.45,3.47c-3.99,18.41-0.84,37.92-2.95,56.71
			c-2.15,19.11-8.02,37.7-9.75,56.69c-0.93,10.22,11.84,15.96,18.51,7.8C1860.81,706.07,1868.07,642.64,1844.23,611.04z"/>
		<path class="st7" d="M2020.51,711.65c-11.86,24.15-24.4,48.73-43.34,68.23c-22.81,23.48-85.16,44.26-79.33-10.85
			c2.84-26.9,20.49-50.58,25.57-77.24c4.65-24.39-0.3-48.08-12.29-69.47c-5.92-10.56-22.51-4.39-23.88,6.15
			c-3.71,28.39-3.33,49.36-15.35,76.38c-7.69,17.27-16.29,34.36-18.83,53.33c-0.07,0.49-0.09,0.98-0.15,1.47
			c-5.07,2.63-8.87,7.65-9.39,15.56c-1.2,18.32-1.71,36.38-1.41,54.35c-2.48,42.15-8.61,84.71-20.42,124.43
			c-2.84,9.56,3.39,22.07,15.1,19.88c59.27-11.1,101.43-46.98,137.57-93.52c37.08-47.75,71.12-98.83,75.18-160.86
			C2050.66,702.32,2028.23,695.93,2020.51,711.65z M1858.12,934.47c0.62-2.04,1.22-4.08,1.83-6.12c1.46,1.09,2.99,2.05,4.63,2.8
			C1862.46,932.28,1860.31,933.39,1858.12,934.47z"/>
		<path class="st7" d="M1114.23,1221.53c-35.79-7.56-60.32-37.8-87.31-60.09c-28.82-23.8-62.46-39.44-97.14-52.76
			c-29.12-11.18-58.53-22.41-83.98-40.31c-12-12.81-24.42-25.19-38.16-36.22c-19.24-24.14-33.27-52.61-41.47-82.2
			c-2.17-7.82-15.64-6.15-15.86,1.95c-0.78,27.55,4.07,52.73,13.46,75.35c-4.1,4.34-6.29,10.31-4.72,17.53
			c15.9,73.33,59,137.95,122.92,178.18c64.42,40.55,163.5,60.19,236.99,37.07C1139.64,1253.51,1132.14,1225.31,1114.23,1221.53z"/>
		<path class="st7" d="M901.27,1754.71c-3.66-99.36-18.63-198.32-39.43-295.46c-41.59-194.24-104.69-383.13-142.88-578.16
			c-10.6-54.12-19-108.53-23.6-163.51c-3.17-37.91-3.58-76.07-5.52-114.08c0.32-5.98,0.64-11.96,0.98-17.94
			c2.25,12.66,4.88,25.25,8.26,37.64c14.61,53.47,38.85,114.8,72.41,159.35c1.8,2.4,5.47,0.25,4.51-2.51
			c-8.9-25.37-21.39-49.19-29.73-74.86c-9.83-30.27-16.62-61.23-22.97-92.39c-4.03-19.81-7.91-39.65-10.93-59.63
			c7.91,15.48,16.44,29.5,24.04,40.43c17.53,25.21,41.29,44.44,65.85,62.45c22.48,16.48,45.05,37.16,73.08,42.72
			c4.04,0.8,7.66-4.82,4.73-8.01c-17.26-18.81-40.47-30.74-57.81-49.71c-19.05-20.85-32.81-46-47.43-69.99
			c-9.7-15.92-18.49-32.03-26.32-48.72c21.01,23.43,48.03,42.97,75.44,50.82c5.26,1.51,12.96-3.26,9.65-9.5
			c-14.92-28-35.77-53.45-52.55-80.55c-9.97-16.1-21.19-32.46-24.46-51.51c-2.44-14.19-0.35-28.77-3-42.91
			c-1.48-7.92-9.33-13.47-17.3-10.25c-20.46,8.27-28.4,26.06-29.32,45.67c-5.22-3.53-12.67-1.79-15.48,4.46
			c-1.1,2.45-1.99,5.01-2.78,7.61c-6.03-4.77-16.71-3.74-19.84,4.62c-7.58,20.25-13.81,41.16-19.02,62.49
			c0.13-7.06,0.09-14.09-0.18-21.11c-0.56-14.49-21.45-15.64-26.68-3.65c-24.82,56.95-30.81,125.47-38.23,186.62
			c-7.5,61.77-11.56,123.74-12.89,185.94c-2.76,128.73,5.25,257.35,24.99,384.61c19.95,128.58,53.61,254.18,84.51,380.42
			c15.48,63.25,30.16,126.74,41.62,190.85c9.49,53.15,15.49,102.47-12.24,151.35c-7.16,12.62,9.91,30.19,22.75,23.11
			c15.84-8.73,27.03-20.35,34.77-33.85c6.51,12.29,23.71,16.73,35.17,9.92c2,0.59,4.1,0.84,6.27,0.64
			C904.95,1949.17,903.84,1824.27,901.27,1754.71z M696.17,1462.88c-49.96-206.78-78.71-416.69-72.82-629.8
			c0.27-9.88,0.69-19.76,1.07-29.64c-0.01,2.44-0.02,4.91-0.02,7.34c-0.22,127.26,9.22,254.34,29.24,380.04
			c19.91,125.01,52.29,247.38,77.35,371.36c10.03,49.62,18.89,99.53,24.95,149.81C737.86,1628.53,716.22,1545.87,696.17,1462.88z
			 M823.63,1902.05c7.44-46.15,4.48-95.14,1.28-140.6c-4.31-61.41-13.7-122.37-25.33-182.78c-23.91-124.14-57.2-246.28-78.53-370.94
			c-14.29-83.51-24.33-167.84-30.19-252.43c17.12,94,40.1,186.97,62.39,279.8c27.85,115.99,57.22,231.71,75.68,349.69
			c9.15,58.49,15.59,117.44,17.86,176.62C848.69,1810.46,853.71,1864.93,823.63,1902.05z"/>
		<path class="st7" d="M694.19,373.01c-85.97,19.19-149.04,99.52-187.63,173.86c-52.2,100.56-65.03,216.61-67.2,328.31
			c-4.6,236.47,22.85,473.74,81.21,702.91c16.05,63.02,35.4,124.98,53.81,187.32c10.23,34.64,19.73,69.47,26.93,104.88
			c3.84,18.87,18.83,69.92-5.27,81.51c-12.8,6.16-7.71,23.41,5.94,23.23c92.13-1.21,25.69-177.41,13.37-219.5
			c-34.63-118.31-68.7-235.68-90.94-357.13c-21.54-117.61-35.35-236.89-40.16-356.38c-4.88-121.05-6.76-247.37,22.24-365.82
			c14.47-59.1,37.89-116.7,73.61-166.24c34.06-47.24,77.67-79.96,122.56-115.82C711.13,387.39,706.39,370.29,694.19,373.01z"/>
		<path class="st7" d="M1346.52,442.03c-13.88,25.25-28.41,50.11-42.82,75.06c-7.81,13.51-15.48,27.13-23.55,40.49
			c-12.56,20.79-10.41,26.07-37.17,21.77c-16.95,3.67-25.41-2.41-25.36-18.24c-1.33-7.24-2.39-14.51-3.18-21.83
			c-1.54-12.18-2.76-24.38-3.23-36.65c-1.2-31.6,2.44-63.23,4.8-94.69c0.29-3.94-2.5-6.66-5.63-7.33
			c11.89-27.74,25.76-54.6,41.56-80.14c4.86-7.86-1.82-21.57-12.22-16.31c-57.27,28.97-87.06,102.12-103.93,168.28
			c-7.21-13.08-9.42-30.26-11.55-43.51c-2.92-18.16-32.2-20.19-33.57-0.2c-5.01,73.12-22.21,145.52-37.24,217.07
			c-5.09,24.25-12.12,47.31-22.44,67.28c-7.39,13.39-16.07,25.79-26.66,36.11c-0.11,0.11-0.22,0.22-0.33,0.32
			c-1.38,1.34-2.86,2.57-4.31,3.84c-16.88,14.05-38.42,23.24-66.35,25.28c-7.71,0.56-10.7,11.59-4.46,16.07
			c3.88,2.78,7.77,5.12,11.66,7.06c2.13,3.12,5.58,5.47,10.52,6.12c32.51,4.25,66.14,11.19,83.99,41.21
			c5.13,8.63,20.95,11.18,28.32,4.19c19.78-18.76,59.27-45.24,67.63-73.95c11.44,15.31,25.73,27.23,43.7,32.09
			c15.71,4.25,29.12-7.72,24.31-23.94c-4.9-16.56-14.39-30.01-23.19-44.19c3.6,2.29,7.36,4.42,11.39,6.25
			c0.55,0.25,1.12,0.33,1.69,0.34c9.15,21.52,22.82,40.28,47.06,47.34c12.92,3.76,24.9-2.07,27.67-15.88
			c22.81-113.99,59.19-223.55,98.89-332.62C1366.41,438.02,1351.82,432.39,1346.52,442.03z M1184.29,536.79
			c0.22,3.07,0.5,6.29,0.84,9.57c-5.78-0.35-11.89,1.21-16.97,4.51c0.75-5.91,1.6-11.82,2.63-17.72
			c3.81-21.93,9.05-43.63,15.34-65.01C1183.06,490.8,1182.68,513.9,1184.29,536.79z M1232.97,744.26c-1.38-2.16-2.61-4.48-3.77-6.9
			c2.52-0.81,4.87-2.04,6.88-3.68C1235.04,737.2,1234.02,740.73,1232.97,744.26z"/>
		<path class="st8" d="M735.3,337c-118.91-60.69-238.94,54.8-298.51,145.65c-35.47,54.1-60.1,113.95-77.17,176.27
			c-16.45,60.03-32.61,128.63-21.41,190.95c0.57,3.17,5.29,3.42,5.77,0.04c8.27-59.01,7.49-117.62,23.56-175.64
			c15.8-57.07,41.79-110.19,73.04-160.33c30.01-48.15,66.64-93.8,114.46-125.29c54.37-35.81,111.51-42.42,174.16-29.08
			C742.99,362.49,746.52,342.73,735.3,337z"/>
		<path class="st8" d="M1255.74,41.94c-114.67-1.24-229.46,24.14-325.17,90.79c-81.16,56.52-168.4,147.72-176.11,250.92
			c-0.32,4.28,5.36,7.36,8.17,3.44c12.56-17.54,24.13-35.85,35.77-54.12c-0.73,18.89,6,36.24,30.28,36.62
			c54.48,0.84,124-70.36,106.88-126.39c-7.05-23.06-25.35-31.03-44.67-27.78c18.3-17.63,37.86-33.95,58.51-48.7
			c90.12-64.36,196.96-104.78,306.33-121.14C1257.68,45.29,1257.9,41.96,1255.74,41.94z"/>
		<path class="st8" d="M940.06,312.29c-9.27-1.28-18.49,4.84-21.84,13.52c-3.52,9.13-0.78,20.19,8.5,24.49
			c4.77,2.21,10.5,1.63,13.91-2.75c0.43-0.41,0.74-0.92,0.97-1.48c-0.08,0.14-0.13,0.22-0.23,0.38c0.75,0,3.78-6.39,3.07-4.61
			c0.29-0.74,1.04-2.17,1.06-2.93c-1.96,3.27-1.7,2.79,0.79-1.42c0.19-0.29,0.3-0.62,0.43-0.93c0.11-0.13,0.19-0.21,0.34-0.41
			c1.07-1.37,4.8-7.06,1.69-2.47C954.33,325.48,950.58,313.73,940.06,312.29z"/>
		<path class="st8" d="M979.1,328.98c-12.98,0-10.39,20.04,2.46,20.04C994.54,349.02,991.95,328.98,979.1,328.98z"/>
		<path class="st8" d="M1991.01,447.83c-36.7-63.94-89.9-133.27-151.3-175.24c-5.17-3.53-11.24,2.33-7.81,7.62
			c2.04,3.16,4.16,6.26,6.3,9.34c-0.49-0.32-0.95-0.68-1.44-0.99c-14.17-9.15-37.47-4.06-38.85,15.81
			c-1.7,24.43,5.68,47.43,22.05,65.86c9.56,10.77,24.26,23.89,39.49,31.83c3.19,5.81,7.55,10.87,14.48,14.44
			c8.01,4.13,16.84-0.15,22.42-5.89c2-2.06,3.5-4.33,4.67-6.72c7.54-5.33,12.2-14.17,12.86-24.09c18.7,21.2,36.76,42.95,51.89,67.05
			c19.88,31.69,35.36,65.51,45.78,101.44c11.48,39.61,13.59,81.41,25.72,120.61c1.89,6.12,12.44,4.99,12.63-1.55
			C2052.14,593.18,2027.69,511.73,1991.01,447.83z"/>
		<path class="st8" d="M1633.71,329.28c-5.76-7.35-15.6,0.71-11.3,8.39c32.73,58.52,37.1,118.89,45.98,183.6
			c0.76,5.52,9.12,7.17,11.14,1.53C1703.21,456.69,1674.92,381.85,1633.71,329.28z"/>
		<path class="st8" d="M1259.97,312.91c-19.84,40.54-33.36,90.59-35.42,135.7c-0.25,5.54,7.73,8.58,9.96,2.69
			c16.32-43.08,30.21-89.37,41.86-133.96C1278.94,307.52,1264,304.67,1259.97,312.91z"/>
		<path class="st8" d="M575.27,1003.65c-5.49-90.15-4.89-181.22,5.59-270.98c4.82-41.29,11.85-82.33,21.22-122.83
			c10.25-44.28,26.93-86.61,37.37-130.7c1.63-6.91-8.22-8.31-11.13-3.01c-40.84,74.34-56.5,170.69-67.88,253.79
			c-12.02,87.75-14.57,176.37-9.33,264.73c11.36,191.48,55.51,377.79,103.71,562.76c1.35,5.17,10.21,2.93,9.11-2.33
			C625.88,1373.18,586.59,1189.71,575.27,1003.65z"/>
		<path class="st8" d="M896.18,718.1c-39.33-24.7-77.22-43.54-107.38-80.38c-30.39-37.13-52.52-81.7-62.12-128.75
			c-0.55-2.7-4.39-2.25-4.25,0.52c4.59,91.77,71.16,203.11,168.82,220.31C897.39,730.88,901.79,721.62,896.18,718.1z"/>
		<path class="st8" d="M1103.65,540c-26.32,58.69-33.11,127.52-7.01,187.62c2.07,4.77,10.08,3.16,9.12-2.33
			c-10.91-62.32-13.12-120.59,6.66-181.64C1114.27,537.91,1106.19,534.35,1103.65,540z"/>
		<path class="st8" d="M1812.09,383.99c-3.33-8.06-8.12-14.51-13.77-21.08c-5.89-6.84-11.6-13.47-20.77-15.36
			c-6.65-1.37-12.69,4.34-13.77,10.49c-1.44,8.17,2.93,16.17,6.71,23.14c4.59,8.47,8.94,15.33,15.91,22.05
			C1798.64,415.07,1818.02,398.37,1812.09,383.99z"/>
		<path class="st8" d="M1760.39,378.54c-0.53-2.06-1.14-4.09-1.73-6.13c-0.69-2.38-3.31-4.68-5.5-5.59
			c-2.24-0.93-5.36-1.07-7.61-0.06c-5.15,2.31-7.54,7.79-5.65,13.12c0.71,2,1.3,4.07,2.33,5.92c0.99,1.79,2.23,3.4,3.42,5.06
			c2.09,2.91,6.53,4.3,9.87,2.8c3.71-1.67,5.25-4.93,5.24-8.84C1760.73,382.71,1760.91,380.59,1760.39,378.54z"/>
		<path class="st9" d="M1160.73,1420.7c0.54,9.52,16.33,12.22,19.05,2.61c11.74-41.43,53.13-51.16,90.28-35.33
			c14.01,5.97,27.39,14.09,35.74,27.09c6.6,10.27,7.27,17.92,18.1,24.62c7.72,4.78,15.63,2.73,20.02-5.25
			C1383.05,1363.24,1153.22,1287.75,1160.73,1420.7z"/>
		<path class="st9" d="M1778.32,1824.94c-40.22-59.79-46.65-144.38-56.79-213.99c-1.31-8.99-10.19-17.35-19.8-15.47
			c-41.57,8.14-83.59,13.42-126.03,12.11c-40.16-1.24-78.51-10.29-118.16-14.93c-10.63-1.24-16.75,9.03-14.5,17.34
			c-3.55,1.39-6.66,4.18-8.53,8.8c-32.94,81.59-119.14,126.96-204.82,101.61c-7.17-2.12-15-1.16-19.83,5.21
			c-23.4,30.87-45.08,62.81-65.28,95.86c-6.52,10.66-3.26,27.83,11.78,28.94c103.68,7.65,207.35,14.96,311.09,21.65
			c47.44,3.06,96,8.98,143.51,4.28c19.45-1.92,38.57-5.88,57.38-11.1c28.81-7.99,59.11-23.71,89.44-14.02
			C1773.91,1856.39,1788.24,1839.69,1778.32,1824.94z"/>
		<path class="st10" d="M1743.61,1861.39c-0.22-12.17-14.26-17.31-24-14.22c-39.54,12.52-81.5,13.46-122.6,16.01
			c-43.96,2.73-87.9,6.29-131.91,7.92c-80.46,2.98-160.96-13.56-241.11-3.9c-3.18-1.18-6.73-0.88-9,1.15
			c-0.45,0.07-0.9,0.11-1.35,0.17c-1.63,0.24-3.13,0.65-4.52,1.17c-0.06,0.18-0.13,0.37-0.19,0.55c-1.16,3.61-1.72,7.27-2.49,10.97
			c-0.08,0.8-0.17,1.59-0.25,2.39c-0.2,2.09-0.34,4.19-0.45,6.29c-0.23,4.33-0.29,8.67-0.28,13.01c0.01,1.39,0.07,2.79,0.1,4.18
			c2.32,1.44,5.01,2.42,8.15,2.64c1.47,24.35,4.64,48.28,9.89,72.85c4.87,22.76,7.07,40.07,31.77,47.03
			c33.24,9.37,73.64-0.63,107.48-1.38c42.62-0.95,85.21,0.96,127.78,3.01c37.73,1.82,75.45,3.76,113.23,3.97
			c28.4,0.16,67.37,4.81,93.49-8.54c22.22-11.35,28.23-36.52,34.23-59C1740.93,1932.7,1744.28,1897.49,1743.61,1861.39z"/>
		<path class="st10" d="M1640.26,2115.71c-35.99,26-79.63,31.94-121.36,16.74c-6.47-2.36-13.84-0.76-18.19,4.78
			c-23.15,29.46-61.35,24.55-94.71,21.81c-32.14-2.64-62.59-6.23-91.65-21.23c-4.02-2.08-7.77-2.39-11.06-1.57
			c-0.03-3.16-0.08-6.32-0.07-9.49c0.05-11.76-19.79-11.86-20.64-0.13c-6.02,82.89,8.57,164.54,40.07,241.32
			c2.41,5.87,8,8.57,14.04,8.32c43.9-1.83,89.89,1.65,133.44-4.52c14.29-2.02,26.4-7.96,33.2-17.73c2.22,0.4,4.52,0.71,7.04,0.83
			c31.95,1.5,62.41-8.11,95.29-4.84c7.14,0.71,13.73-3.01,16.68-9.57c30.25-67.41,34.12-139.38,39.42-212
			C1662.62,2116.95,1650.08,2108.61,1640.26,2115.71z"/>
		<path class="st6" d="M1882.82,1253.29c-0.67-20.96-9.48-42.74-20.61-63.08c-6.26-14.04-13.37-28.42-21.6-40.14
			c-0.62-0.89-1.4-1.43-2.24-1.71c-0.02-0.1-0.03-0.2-0.05-0.3c-1.25-5.28-7.66-6.3-10.26-1.4c-5.45,10.25-8.96,20.42-17.07,29.1
			c-2.42,2.59-2.51,7.97-0.13,10.65c13.98,15.81,26.45,32.7,36.23,51.45c6.95,13.32,9.79,28.6,21.6,38.32
			c3.31,2.72,7.83,0.32,8.6-3.5c0.3-1.48,0.43-3,0.53-4.52c0.81-0.65,1.5-1.51,1.95-2.7c1.03-2.75,1.67-5.56,2.05-8.4
			C1882.46,1255.92,1882.87,1254.66,1882.82,1253.29z"/>
		<path class="st5" d="M1721.49,1549.29c-3.82-7.53-10.69-10.42-18.8-8.1c-45.72,13.06-33.28-63.86-29.35-85.31
			c5.55-30.24,15.66-45,34.95-68.05c14.54-17.36,12.3-37.18,12.75-58.78c0.58-28.15,2.52-56.64,1.51-84.77
			c-1.3-36.15-22.07-53.35-57.84-51.05c-60.2,3.87-113.73,5.81-172.83-9.66c-6.15-1.61-13.21,4.49-13.7,10.44
			c-4.25,51.8-13.15,105.97-10.98,158.17c-6.44,6.06-7.47,19.18,3.01,24.78c16.68,8.92,49.12-3.61,42.05,30.68
			c-1.64,7.94,5.29,16.07,12.97,17.02c9.6,1.18-18.94,67.59-21.96,73.78c-10.73,21.96-23.94,42.22-38.45,61.82
			c-6.86,9.27-1.93,24,10.29,25.26c64.16,6.65,128.97,16.68,193.4,19.83C1699.77,1606.88,1740.18,1586.08,1721.49,1549.29z"/>
		<path class="st11" d="M1507.76,1285.28c0.4-28.22,2.67-58.53-7.66-85.21c-3.25-8.39-16.28-8.84-19.56-0.15
			c-9.81,26.03-8.72,55.18-10.64,82.69c-1.73,24.89-9.5,53.99,1.61,77.04c4.24,8.8,16.98,12.28,23.38,3.35
			C1510.46,1341.28,1507.4,1311.21,1507.76,1285.28z"/>
		<path class="st11" d="M1700.09,1550.32c-34.51,2.07-69.07,3.78-103.63,4.95c-29.2,0.99-63.22,5.76-93.2,2.94
			c-0.32-1.12-0.64-2.25-0.96-3.37c-2.76-17.4-26-16.52-29.72-0.18c-10.59,46.51,39.53,40.29,71.83,40.73
			c53.67,0.74,107.21-0.25,160.79-3.46C1732.18,1590.31,1726.94,1548.71,1700.09,1550.32z"/>
		<path class="st11" d="M1571.09,1308.67c-0.37-4.14-4.73-6.12-8.34-4.94c-3.81,1.25-7.26,3.01-10.23,5.67
			c-3.04,2.71-5.37,6.28-8.72,8.66c-4.7,3.33-13.66,3.72-14.94-3.61c-0.99-5.64-8.37-6.64-10.85-1.48
			c-6.68,13.89,8.16,27.06,21.43,27.67C1556.11,1341.4,1572.57,1325.07,1571.09,1308.67z"/>
		<path class="st11" d="M1633.1,1301.51c-0.01-0.04-0.01-0.05-0.02-0.09c0.25-4.13,0.5-7.85-2.09-11.41
			c-2.12-2.91-5.73-3.56-8.97-2.55c-2.98,0.93-5.25,3.39-6.98,5.97c-1.1,0.56-2.1,1.25-2.91,2.2c-1.55,1.51-2.74,4.17-3.57,5.32
			c-0.89,1.24-1.45,2.11-2.71,2.86c-1.35-1.47-3.06-2.57-5.07-2.87c-9.24-1.35-14.44,8.44-11.47,16.39
			c3.05,8.14,13.55,10.83,21.35,9.65c8.24-1.25,15.06-6.29,19.49-13.23c1.47-2.31,2.97-4.66,3.34-7.43
			C1633.77,1304.67,1633.64,1303.06,1633.1,1301.51z"/>
		<path class="st12" d="M827.95,150.3c-18.72-3.08-42.91-10.1-63.07-10.25c-1.22-0.66-2.55-1.24-4.03-1.68
			c-6.47-1.94-12.96-3.74-19.47-5.5c-7.88-13-18.42-22.6-34.52-19.95c-18.13,2.99-39.64,17.98-56.01,25.75l-71.09,33.77
			c-12.1,5.75-14.57,20.87-4.26,29.75c13.62,11.74,26.39,24.24,38.62,37.23c9.97,17.19,20.54,34.03,32.33,49.93
			c20.83,28.11,40.05,29.12,73.74,32.3c33.01,3.11,39.43-2.29,55.74-31.55c0.44-0.79,0.89-1.57,1.33-2.36
			c1.4-0.01,2.76-0.21,3.96-0.71c15.07-6.31,17.42-22.5,22.29-36.57c2.81-8.12,5.6-16.25,8.47-24.34
			c9.85-17.35,19.73-34.69,29.65-52.01C847.42,163.97,837.76,151.91,827.95,150.3z M640.02,182.34c1.3-0.61,2.59-1.22,3.89-1.83
			c0.26,0.97,0.46,1.92,0.83,2.93c0.28,0.75,0.56,1.5,0.84,2.26C643.72,184.58,641.91,183.41,640.02,182.34z"/>
		<path class="st13" d="M716.83,268.19c-12.11-21.77-20.3-44.82-31.48-66.92c-8.42-16.64-31.96-10.84-31.28,8
			c1.14,31.18,16.73,67.11,35.97,91.36c4.19,5.28,11.23,9.05,18.16,7.78C730.93,304.25,725.17,283.17,716.83,268.19z"/>
		<path class="st13" d="M788.35,225.78c-2.17-17.12-5.36-34.12-17.91-46.56c-7.56-7.49-18.82,0.03-20.65,8.41
			c-3.04,13.91,1.43,28.58,2.08,42.63c0.63,13.75-1.33,28.13,7.79,39.5c4.02,5.01,12.46,7.3,17.77,2.63
			C791.08,260.36,790.5,242.72,788.35,225.78z"/>
		<path class="st14" d="M1714.82,1871.26c-62.21-0.61-123.74,11.91-185.64,19.13c25.37-4.59,51-7.78,76.33-12.54
			c0.97-0.18,1.37-1.69,0.28-2.05c-47.52-15.93-90.64-8.52-139.62-7.53c-51.49,1.05-102.04-13.19-154.13-11.53
			c-27.62,0.88-67.77-0.33-83.63,21.76c-29.01-2.57-31.72,33.41-25.22,57.11c5.84,21.31,15.13,42.45,24.78,62.29
			c6.96,14.31,14.23,33.89,33.07,34.15c8.36,0.12,15.28-3.13,19.75-8.19c0.61,0.17,1.24,0.19,1.86,0.3
			c16.32,12.96,43.81-2.14,36.15-26.57c-4.57-14.57-7.01-28.96-7.39-43.72c66.66-5.07,133.28-11.48,199.55-20.28
			c69.34-9.2,142.67-15.66,205.71-47.35C1722.76,1883.18,1723.47,1871.34,1714.82,1871.26z"/>
		<path class="st5" d="M1508.16,1642.49c-0.57-2.24-1.14-4.47-1.71-6.71c-1.82-4.53-4.65-8.31-8.49-11.33
			c-2.09-1.22-4.18-2.45-6.27-3.67c-4.41-1.81-8.98-2.43-13.7-1.87c-3.59,0.31-6.85,1.45-9.78,3.42c-3.32,1.5-6.08,3.76-8.26,6.79
			c-2.41,2.85-3.93,6.07-4.59,9.66c-1.21,3.32-1.52,6.76-0.95,10.31c0.57,2.24,1.14,4.47,1.71,6.71c1.82,4.53,4.65,8.31,8.49,11.33
			c2.09,1.22,4.18,2.45,6.27,3.67c4.41,1.81,8.97,2.43,13.7,1.87c3.59-0.31,6.85-1.45,9.78-3.42c3.32-1.5,6.08-3.76,8.26-6.79
			c2.41-2.85,3.93-6.07,4.58-9.66C1508.42,1649.48,1508.73,1646.05,1508.16,1642.49z"/>
		<path class="st5" d="M1670.48,1664.23c-0.45-1.74-0.89-3.49-1.33-5.23c-1.42-3.53-3.63-6.48-6.62-8.83
			c-1.63-0.95-3.26-1.91-4.89-2.86c-3.44-1.41-7-1.9-10.68-1.46c-2.8,0.24-5.34,1.13-7.62,2.67c-2.59,1.17-4.74,2.93-6.44,5.29
			c-1.88,2.22-3.07,4.73-3.58,7.53c-0.94,2.59-1.19,5.27-0.74,8.04c0.44,1.74,0.89,3.49,1.33,5.23c1.42,3.53,3.63,6.48,6.62,8.83
			c1.63,0.95,3.26,1.91,4.89,2.86c3.44,1.41,7,1.9,10.68,1.46c2.8-0.24,5.34-1.13,7.62-2.67c2.59-1.17,4.74-2.93,6.44-5.29
			c1.88-2.22,3.07-4.73,3.57-7.53C1670.68,1669.68,1670.93,1667,1670.48,1664.23z"/>
		<path class="st5" d="M1604.15,1788.86c-0.47-1.83-0.93-3.66-1.4-5.49c-1.49-3.71-3.81-6.79-6.95-9.27c-1.71-1-3.42-2-5.13-3
			c-3.6-1.48-7.34-1.99-11.21-1.53c-2.94,0.25-5.6,1.18-8,2.8c-2.72,1.23-4.97,3.08-6.76,5.55c-1.97,2.33-3.22,4.97-3.75,7.9
			c-0.99,2.71-1.25,5.53-0.78,8.44c0.47,1.83,0.93,3.66,1.4,5.49c1.49,3.71,3.8,6.79,6.95,9.27c1.71,1,3.42,2,5.13,3
			c3.6,1.48,7.34,1.99,11.21,1.53c2.94-0.25,5.6-1.18,8-2.8c2.72-1.23,4.97-3.08,6.76-5.55c1.97-2.33,3.22-4.97,3.75-7.9
			C1604.35,1794.58,1604.61,1791.77,1604.15,1788.86z"/>
		<path class="st5" d="M1564.92,1677.26c-0.36-2.15-1.24-4.1-2.63-5.84c-0.13-0.21-0.26-0.43-0.39-0.64l-3.33-3.4
			c-1.87-1.58-3.98-2.58-6.33-3.01c-1.44-0.59-2.94-0.8-4.49-0.61c-1.54-0.2-3.03-0.02-4.47,0.55c-2.29,0.38-4.36,1.32-6.22,2.8
			l-3.4,3.33l-2.4,4.11c-0.99,2.16-1.39,4.39-1.21,6.71c-0.2,1.54-0.02,3.03,0.55,4.47c0.2,1.55,0.76,2.95,1.68,4.21
			c0.98,2.18,2.47,3.98,4.45,5.41c1.37,0.8,2.74,1.6,4.11,2.41c1.48,0.4,2.96,0.8,4.44,1.2c1.51,0.01,3.02,0.02,4.54,0.02
			c2.35-0.2,4.49-0.95,6.41-2.24c2.18-0.98,3.98-2.46,5.41-4.45c0.14-0.22,0.27-0.44,0.41-0.65c0.75-1.29,1.51-2.57,2.26-3.86
			c0.93-2.03,1.31-4.13,1.14-6.31C1565.62,1680.01,1565.45,1678.61,1564.92,1677.26z"/>
		<path class="st5" d="M1204.88,1792.47c-0.81-2.28-2.11-4.19-3.91-5.73c-0.98-1.3-2.22-2.27-3.72-2.91
			c-1.27-0.98-2.69-1.58-4.28-1.8c-1.45-0.59-2.94-0.8-4.49-0.61c-2.3-0.2-4.52,0.17-6.67,1.11c-0.3,0.11-0.6,0.22-0.9,0.33
			c-1.11,0.41-1.83,0.85-3.01,1.51c-1.56,0.63-2.86,1.6-3.9,2.92c-0.66,0.57-1.28,1.18-1.86,1.83c-1.15,1.35-1.87,3.02-2.7,4.59
			c-0.17,0.32-0.34,0.63-0.5,0.95c-0.41,1.52-0.82,3.04-1.23,4.56c-0.01,1.55-0.02,3.1-0.03,4.66c0.38,1.5,0.77,3.01,1.15,4.51
			c0.83,2.33,2.16,4.29,4,5.87c1,1.34,2.28,2.33,3.81,2.98c1.3,1.01,2.76,1.62,4.39,1.85c1.48,0.61,3.02,0.82,4.61,0.63
			c2.35,0.21,4.63-0.17,6.84-1.14c0.28-0.15,0.57-0.3,0.85-0.45c0.09-0.05,0.19-0.1,0.28-0.15c1.41-0.78,2.81-1.57,4.22-2.35
			c0.06-0.05,0.11-0.1,0.17-0.15c2.14-1.47,3.75-3.36,4.84-5.65c0.75-1.29,1.14-1.82,1.56-2.96c0.13-0.33,0.25-0.67,0.38-1
			c0.4-1.48,0.8-2.96,1.2-4.45c0.01-1.51,0.02-3.03,0.02-4.54C1205.63,1795.4,1205.25,1793.93,1204.88,1792.47z"/>
		<path class="st5" d="M1377.68,1774.18c-0.61-1.45-1.57-3.42-2.52-4.69c-1.18-1.21-2.36-2.42-3.55-3.63
			c-1.46-0.85-2.92-1.71-4.38-2.56c-0.75-0.32-2.32-0.64-2.59-0.72c-1.47-0.6-2.99-0.81-4.57-0.62c-2.33-0.21-4.59,0.17-6.78,1.13
			c-3.13,1-6.24,3.48-8.24,6.04c-1.25,1.43-2.15,3.03-2.7,4.78c-1.06,2.32-1.5,4.72-1.3,7.21c-0.22,2.46,0.18,4.85,1.19,7.16
			c0.07,0.27,0.14,0.55,0.22,0.82c0.52,1.96,1.63,3.65,2.77,5.33c2.02,2.69,4.58,4.69,7.68,6c2.23,1.02,4.54,1.44,6.93,1.25
			c2.37,0.21,4.67-0.17,6.89-1.15c3.07-1.23,5.62-3.15,7.67-5.75c0.93-1.36,2.02-3.11,2.72-4.6c0.56-1.2,0.97-3.6,1.43-5.31
			c0.08-0.29,0.17-0.58,0.24-0.88c0.25-0.86,0.27-1.74,0.07-2.66C1379.09,1778.88,1378.69,1776.5,1377.68,1774.18z"/>
		<path class="st5" d="M1436.64,1827.09c-1.28-1.7-2.87-2.99-4.6-4.1c-0.69-0.55-0.99-0.95-3.59-2.05
			c-0.52-0.22-0.93-0.33-1.37-0.49c-0.08-0.05-0.16-0.09-0.24-0.14c-0.22-0.06-0.45-0.12-0.67-0.18c-0.12-0.03-0.25-0.07-0.37-0.1
			c-1.08-0.29-2.16-0.58-3.25-0.88c-1.46-0.01-2.92-0.02-4.38-0.02c-2.27,0.19-4.33,0.92-6.19,2.16c-1.43,0.58-2.63,1.47-3.58,2.69
			c-1.26,0.95-2.19,2.14-2.8,3.59c-0.95,1.22-1.53,2.6-1.74,4.13c-0.76,2.1-0.96,4.27-0.6,6.53c0.25,3.1,1.06,4.6,2.4,7.02
			c0.57,1.02,0.81,1.59,1.38,2.36l3.3,3.38c0.07,0.08,0.16,0.16,0.24,0.22c1.87,1.58,3.97,2.58,6.32,3
			c0.77,0.35,1.57,0.55,2.39,0.61c1.6,0.37,3.17,0.37,4.69-0.01c1.45-0.37,2.91-0.74,4.36-1.11c1.7-0.61,3.29-1.56,4.76-2.6
			c4.97-3.51,7.53-9.91,6.8-15.87C1439.51,1832.23,1438.42,1829.52,1436.64,1827.09z"/>
		<path class="st5" d="M1723.99,1757.45c-4.72-0.61-9.19,0.6-12.96,3.5c-4.3,3.3-7.12,8.19-6.32,13.85
			c0.42,2.97,1.64,5.73,3.42,8.12c1.7,2.29,4.28,4.56,7,5.55c2.92,1.07,5.54,1.23,8.67,1.1c3.78-0.16,8.63-3.07,10.79-6.1
			c2.12-2.98,3.28-6.2,3.3-9.87C1737.92,1765.66,1732.06,1758.48,1723.99,1757.45z"/>
		<path class="st5" d="M1769.39,1829.76c-0.63-1.13-1.26-2.26-1.89-3.4c-1.65-2.2-3.75-3.83-6.28-4.91
			c-1.25-0.34-2.5-0.68-3.75-1.01c-2.6-0.34-5.11-0.03-7.55,0.93c-0.72,0.31-1.27,0.65-2.03,1.07c-1.69,0.76-3.1,1.92-4.21,3.46
			c-0.76,1.01-1.38,2.08-1.88,3.22l-0.04,0.1c-0.04,0.08-0.07,0.16-0.11,0.24c-0.53,1.23-0.87,1.81-1.05,3.83
			c-0.01,1.28-0.01,2.56-0.02,3.83c0.17,1.99,0.8,3.79,1.89,5.41c0.83,1.84,2.08,3.36,3.76,4.57c1.16,0.68,2.31,1.35,3.47,2.03
			c2.44,1,4.97,1.35,7.59,1.03c1.24-0.32,2.48-0.63,3.72-0.95c1.92-0.68,3.53-1.78,4.83-3.3c1.58-1.3,2.73-2.92,3.47-4.88
			c0.84-1.82,1.18-3.71,1.02-5.67C1770.5,1833.45,1770.19,1831.57,1769.39,1829.76z"/>
		<path class="st5" d="M1510.82,1753.4c-0.29-1.12-0.57-2.25-0.86-3.37c-0.92-2.28-2.34-4.18-4.27-5.7l-3.15-1.85
			c-2.22-0.91-4.51-1.22-6.89-0.94c-1.81,0.15-3.44,0.73-4.92,1.72c-1.67,0.75-3.05,1.89-4.15,3.41c-1.21,1.43-1.98,3.05-2.31,4.86
			c-0.61,1.67-0.77,3.4-0.48,5.19l0.86,3.37c0.91,2.28,2.34,4.18,4.27,5.7c1.05,0.62,2.1,1.23,3.15,1.84
			c2.22,0.91,4.51,1.22,6.89,0.94c1.81-0.15,3.44-0.73,4.92-1.72c1.67-0.75,3.06-1.89,4.15-3.41c1.21-1.43,1.98-3.05,2.31-4.86
			C1510.94,1756.91,1511.1,1755.19,1510.82,1753.4z"/>
		<path class="st5" d="M1312.58,1821.73c-0.94-2.08-2.36-3.81-4.26-5.18c-0.35-0.3-0.7-0.61-1.06-0.91
			c-1.18-0.69-2.36-1.38-3.53-2.07c-1.86-0.85-3.78-1.2-5.77-1.04c-1.32-0.17-2.6-0.01-3.84,0.47c-1.97,0.33-3.75,1.13-5.35,2.41
			c-0.34,0.3-0.69,0.59-1.03,0.89c-1.09,1.06-2.17,2.12-3.26,3.18c-1.51,1.79-2.47,3.81-2.88,6.06c-0.57,1.38-0.76,2.81-0.59,4.3
			c-0.19,1.47-0.02,2.9,0.52,4.28c0.37,2.19,1.26,4.18,2.68,5.95c1.06,1.09,2.12,2.17,3.18,3.26c1.31,0.77,2.62,1.53,3.93,2.3
			c2.07,0.95,4.21,1.33,6.42,1.16c1.47,0.19,2.9,0.02,4.28-0.53c1.48-0.19,2.82-0.72,4.03-1.61c2.08-0.94,3.81-2.36,5.18-4.26
			c0.77-1.31,1.53-2.62,2.3-3.93l1.15-4.25c0.01-1.45,0.02-2.9,0.02-4.34C1314.53,1825.61,1313.81,1823.56,1312.58,1821.73z"/>
		<path class="st5" d="M1344.63,1412.72c-0.31-1.21-0.62-2.41-0.92-3.62c-0.98-2.44-2.51-4.48-4.58-6.11
			c-1.13-0.66-2.25-1.32-3.38-1.98c-2.38-0.98-4.84-1.31-7.39-1.01c-1.94,0.17-3.7,0.78-5.28,1.85c-1.79,0.81-3.28,2.03-4.46,3.66
			c-1.3,1.54-2.12,3.28-2.47,5.21c-0.65,1.79-0.82,3.65-0.51,5.57c0.31,1.21,0.62,2.41,0.92,3.62c0.98,2.44,2.51,4.48,4.58,6.11
			c1.13,0.66,2.26,1.32,3.38,1.98c2.38,0.98,4.84,1.31,7.39,1.01c1.94-0.17,3.7-0.78,5.28-1.85c1.79-0.81,3.28-2.03,4.46-3.66
			c1.3-1.54,2.12-3.28,2.47-5.21C1344.77,1416.49,1344.94,1414.64,1344.63,1412.72z"/>
		<path class="st5" d="M1250.36,1362.36c-12.79,0-10.24,19.74,2.42,19.74C1265.57,1382.1,1263.02,1362.36,1250.36,1362.36z"/>
		<path class="st5" d="M1680.78,1736.45c-11.21,0-8.97,17.31,2.13,17.31C1694.12,1753.76,1691.88,1736.45,1680.78,1736.45z"/>
		<path class="st5" d="M1669.62,1815.25c-18.1,0-14.49,27.94,3.43,27.94C1691.15,1843.19,1687.54,1815.25,1669.62,1815.25z"/>
		<path class="st14" d="M1501.11,2275.79c3.63-38.31,1.94-84.29-10.97-120.73c-3.31-9.33-17.12-6.95-18.51,2.27
			c-5.67,37.55-3.26,80.57-0.26,118.27c0.15,1.84,0.64,3.44,1.32,4.88c-0.89,12.05-1.77,24.1-2.6,36.19
			c-2.42,34.92-33.36,32.22-54.17,50.39c-2.94,2.56-3.27,8.37,1.2,9.77c26.13,8.22,60.11,1.85,74.67-23.3
			c11.31-19.54,10.66-46.37,7.69-72.32C1500.33,2279.67,1500.91,2277.87,1501.11,2275.79z"/>
		<path class="st14" d="M1554.86,2333.35c-12.07-17.22-13.18-35.28-14.17-54.4c0.85-1.71,1.43-3.66,1.57-5.9
			c2.89-46.67-3.26-93.04-12.55-138.65c-1.82-8.93-16.22-10.44-16.99-0.1c-1.11,14.85-2.21,29.76-3.14,44.68
			c-1.79,1.1-3.03,3.11-2.82,5.89c0.53,6.92,0.93,13.82,1.42,20.73c-0.93,22.43-1.15,44.88,0.09,67.24
			c0.25,4.49,2.2,7.91,5.01,10.34c0.49,7.73,0.95,15.45,1.46,23.18c1.49,22.59,8.31,42.83,33.34,42.78
			C1555.98,2349.13,1558.72,2338.86,1554.86,2333.35z"/>
		<path class="st14" d="M1403.69,2374.36c-1.04,0-2.07,0-3.11-0.01c-0.42,0-0.34,0.65,0.08,0.65c1.04,0,2.07,0,3.11,0.01
			C1404.19,2375.01,1404.11,2374.36,1403.69,2374.36z"/>
		<path class="st9" d="M1614.41,2292.65c-24.43-13.31-51.56-23.25-79.87-20.45c-14.37,1.42-32.33,9.68-38.96,23.18
			c-1.52-0.64-3.22-1-5.13-0.98c-0.5,0-1,0.09-1.5,0.15c-12.91-15.85-37.35-18.92-57.63-12.21c-19.88,6.58-39.55,17.75-58.19,27.33
			c-11.4,5.86-22.42,10.76-30.92,18.82c-1.15,0-2.29,0.02-3.45-0.04c-11.71-0.56-19.21,5.81-22.2,16.92
			c-0.32,1.19-0.64,2.39-0.96,3.58c-2.71,10.06,5.68,21.28,14.39,25.07c16.8,7.31,31.14,1.92,48.43-1.1
			c19.44-3.38,38.55-3.21,58.17-4.09c4.55-0.2,9.21-0.86,13.84-1.78c1.44,0.88,2.98,1.7,4.66,2.42c11.02,4.75,23.2,3.42,33.15-3.23
			c8.56-5.72,13.59-13.16,16.24-21.44c30.65,9.91,80.94-4.55,103.85-7.82C1632.74,2333.51,1633.93,2303.28,1614.41,2292.65z"/>
		<path class="st15" d="M1481.66,2284.09c-8-9.65-22.61-3.48-21.98,8.79c0.66,12.85,4.72,27.89,0.54,40.4
			c-3.33,9.97-12.19,15.6-14.08,26.54c-1.28,7.4,3.61,15.79,10.61,18.48c22.4,8.6,39.4-13.25,43.73-33
			C1505.35,2323.03,1495.68,2301,1481.66,2284.09z"/>
		<path class="st15" d="M1561.26,2317.06c-6.94-11.43-11-19.94-13.22-33.39c-1.92-11.64-19.93-19.75-27.24-7.55
			c-4.06,6.78-7.22,12.72-7.04,20.85c0.13,5.8,1.3,11.39,3.05,16.93c-4.9-0.44-9.79,5.28-6.26,10.7c4.09,6.27,9.1,11.92,14.88,16.69
			c5.12,4.22,12.96,9.21,19.93,7.64c3.7-0.84,5.28-4.19,3.81-7.48C1560.81,2340.68,1568.42,2328.84,1561.26,2317.06z"/>
		<path class="st16" d="M1712.64,1601.33c-36.02-8.71-76.48-0.62-113.16,0.67c-42.47,1.49-84.98-0.09-127.27-4.15
			c-10.65-1.02-23.48,4.63-27.11,15.56c-18.27,54.98-61.27,96.98-117.05,113.62c-23.84,7.12-54.55,0.74-75.73,13.93
			c-4.74,2.95-8.66,6.84-12.17,11.15c-1.61-19.79-28.43-34.6-42.4-14.09c-17.15,25.19-32.15,51.33-45.11,78.92
			c-6.88,14.66,4.39,30.67,19.09,33.24c5.85,1.02,11.55,1.37,17.12,1.24c1.03,1.98,2.38,3.86,4.37,5.41
			c14.21,11.09,33.38,9.92,50.76,10.54c12.92,0.46,26.65,0.04,35.36-11.21c8.74-11.29,6.94-28.37,9.32-41.69
			c1.89-10.6,4.88-20.91,7.76-31.24c1.7,0.17,3.22,0.3,4.28,0.26c17.35-0.63,34.41-4.19,50.94-9.4
			c60.3-19.01,109.99-65.94,134.36-123.86c37.75,2.53,75.51,2.96,113.33,0.28c39.3-2.79,85.2-5.55,118.76-28.06
			C1727.44,1616.19,1721.84,1603.55,1712.64,1601.33z"/>
		<g>
			<path class="st17" d="M1463.31,1180.23c-2.45,29.33-2.98,58.84-5.75,88.19c-1.34,14.2-3.29,28.31-4.29,42.53
				c-1.07,15.31-4.22,30.19-3.36,45.59c0.54,9.71,15.16,10.89,18.36,2.25c5.37-14.49,6.49-29.76,9.27-44.86
				c2.66-14.51,3.8-29.21,4.79-43.93c2.02-30.15,2.61-60.06-2.59-89.87C1478.19,1171.17,1464.12,1170.51,1463.31,1180.23
				L1463.31,1180.23z"/>
			<path class="st17" d="M1415.95,1412.92c15.95-5.47,31.5-12.65,47.83-16.92c16.2-4.23,33.59-5.88,50.28-4.91
				c-4.22-3.21-8.45-6.41-12.67-9.62c2.67,8.47,0.92,17.85-3.99,25.12c-6.58,9.74-1.54,24.13,10.92,25.46
				c3.16,0.34,4.83,2.04,6.29,5.91c2.3,6.12,0.26,11.93-2.36,17.78c-7.31,16.34-19.63,31.02-29.13,46.15
				c-20.95,33.37-40.79,67.39-58.6,102.55c-14.44,28.5-27.55,58.96-49.78,82.49c-22.6,23.92-54.47,33.62-86.59,35.07
				c-31.85,1.44-64.57-5.6-85.83-30.89c-17.6-20.93-28.35-49.01-33.07-75.76c-0.65-3.67-1.04-7.38-1.31-11.1
				c-0.15-2.06-0.24-4.12-0.31-6.19c-0.04-1.2-0.07-2.4-0.08-3.6c0.03,2.78,0.02-1.25,0.04-1.89c0.21-10.59,1.02-21.15,2.22-31.67
				c2.71-23.64,7.19-47.12,12.97-70.2c5.73-22.88,14.31-46.37,22.92-69.04c1.81-4.76,3.98-9.33,6.3-13.87
				c0.28-0.55,1.39-2.54-0.09,0.08c0.58-1.04,1.19-2.06,1.81-3.08c0.96-1.56,1.96-3.1,3.03-4.59c1.05-1.47,2.25-2.8,3.34-4.23
				c0.59-0.78,2.37-2.57-0.55,0.51c1.26-1.33,2.51-2.59,3.66-4.01c2.26-2.8-2.19,1.48,0.52-0.51c0.36-0.27,2.1-1.7,0.14-0.24
				c-2.12,1.59,1.92-0.99,2.92-1.72c-1.92,0.81-3.85,1.62-5.77,2.43c0.2-0.02,0.4-0.05,0.6-0.07c15.35-1.84,12.1-25.59-3.21-23.76
				c1.64,0.22,3.28,0.45,4.92,0.67c-1.99-0.78-4.05-1.03-6.17-0.76c-0.53,0.03-1.05,0.03-1.57,0.09c-1.96,0.24-4.02,0.82-5.84,1.44
				c-3.78,1.28-7.09,3.32-10.05,5.99c-6.76,6.11-11.83,13.94-16.29,21.81c-3.76,6.62-4.66,7.99-8.13,14.92
				c-2.64,5.28-4.72,10.85-6.79,16.38c-4.43,11.84-8.27,23.9-11.72,36.06c-7.6,26.84-13.66,54.2-17.49,81.84
				c-3.12,22.58-5.47,46.35-2.39,69.08c4.21,31.1,16.97,64.12,35.72,89.31c24.42,32.82,61.74,47.81,101.97,48.76
				c39.06,0.92,79.4-7.47,110.34-32.65c29.44-23.96,46.86-58.54,63.16-92c20.91-42.94,43.89-84.63,70.67-124.21
				c13-19.2,30.01-38.88,29.21-63.47c-0.65-20.08-14.87-39.63-35.72-41.65c3.64,8.49,7.28,16.97,10.92,25.46
				c11.36-17.19,13.82-36.85,7.45-56.38c-1.61-4.95-7.48-9.37-12.67-9.62c-39.08-1.86-86.37,8.7-111.2,41.4
				C1401.84,1407.51,1408.96,1415.31,1415.95,1412.92L1415.95,1412.92z"/>
			<path class="st17" d="M1376.66,1392.28c-16.79,16.53-33.58,33.07-50.37,49.6c-8.57,8.44-16.14,17.64-23.88,26.83
				c-7.84,9.3-16.04,18.16-21.77,28.96c-3.03,5.71,4.62,13.56,10.38,10.22c10.33-5.98,18.66-14.15,27.47-22.13
				c9.13-8.28,18.36-16.35,26.69-25.45c15.92-17.38,31.84-34.77,47.76-52.15C1401.58,1398.74,1385.9,1383.19,1376.66,1392.28
				L1376.66,1392.28z"/>
			<path class="st17" d="M1780.73,1449.48c-2.54-16.95-7.33-32.82-15.89-47.74c-8.49-14.8-20.21-32.94-38.63-35.58
				c-18.37-2.64-34.36,13.35-44.14,26.94c-9.5,13.21-15.3,28.32-19.14,44.02c-3.74,15.28-5.16,30.99-5.53,46.69
				c-0.19,8.01-0.13,16.04,0.01,24.05c0.14,8.32-0.03,16.68,3.87,24.27c9.14,17.76,36.07,17.53,53.38,18.8
				c17.78,1.31,39.39,3.62,55.71-5.09c15.93-8.5,22.63-24.77,22.89-42.14c0.13-8.44-0.86-16.61-1.75-24.99
				c-0.88-8.29-3.2-16.01-4.62-24.21c-1.27-7.34-11.16-10.51-15.78-4.07c-7.27,10.14-9.08,21.14-8.89,33.32
				c0.13,8.67,1.59,19.87-0.59,27.5c-2.57,9.02-12.35,9.83-22.49,9.94c-15.28,0.16-30.69-1.26-45.76-3.68
				c-0.76-0.12-7.31-1.03-7.21-1.5c0.82,0.84,1.64,1.69,2.45,2.53c-0.04-0.06-0.09-0.13-0.13-0.19c-0.01,0.01-0.47-4.66-0.44-4.3
				c-0.37-5.64-0.33-11.36-0.36-17.01c-0.05-12.26,0.43-24.58,1.86-36.76c2.52-21.37,8.7-44.29,24.87-59.58
				c4.53-4.29,8.46-7.19,14.12-3.6c5.66,3.59,10.81,9,15.16,14.07c9.81,11.45,17.55,25.78,21.11,40.46
				C1767.2,1461.47,1782.3,1459.92,1780.73,1449.48L1780.73,1449.48z"/>
			<path class="st17" d="M1425.1,308.66c-45.2,118.64-69.34,246.05-74.79,372.75c-0.77,17.97-1.23,35.87-0.46,53.84
				c0.78,18.26-0.05,36.97,4.06,54.83c2.32,10.1,17.11,11.03,18.71-0.11c2.25-15.59,1.22-31.48,1.49-47.22
				c0.27-15.3,0.97-30.62,1.38-45.92c0.85-31.19,2.84-62.35,5.96-93.4c6.24-62.11,16.31-123.69,31.16-184.34
				c8.55-34.91,18.3-69.53,29.06-103.82C1445.08,304.44,1429.24,297.78,1425.1,308.66L1425.1,308.66z"/>
			<path class="st17" d="M1632.8,333.45c68.35,110,68.9,246.56,44.03,369.65c-3.76,18.63-7.9,37.22-12.38,55.69
				c-2.18,8.99-4.24,17.89-6.04,26.96c-1.97,9.92-5.47,19.77-6.03,29.89c-0.35,6.4,8.56,11.42,12.59,5.04
				c4.48-7.09,7.17-14.95,10.16-22.76c3.31-8.67,6.85-17.12,9.6-25.99c5.33-17.24,10.34-34.58,14.48-52.14
				c8.14-34.52,14.44-69.52,17.14-104.91c5.07-66.21-0.29-133.04-21.21-196.3c-11.31-34.19-27.96-66.37-48.68-95.81
				C1639.93,313.51,1627.03,324.17,1632.8,333.45L1632.8,333.45z"/>
			<path class="st17" d="M1435.22,305.45c-78.6,115.06-132.83,246.55-167.03,381.26c-4.76,18.74-9.35,37.59-12.94,56.6
				c-3.74,19.78-8.22,40.16-8.15,60.32c0.03,9.78,14.3,15.72,18.13,4.64c5.67-16.43,8.39-33.64,12.28-50.56
				c3.9-17,7.73-34.02,11.87-50.97c8.12-33.26,17.64-66.19,28.31-98.72c21.47-65.41,47.17-129.02,76.77-191.18
				c16.8-35.28,35.15-69.78,54.01-104C1452.66,305.25,1440.06,298.36,1435.22,305.45L1435.22,305.45z"/>
			<path class="st17" d="M1243.28,300.42c-5.56,7.42-8.62,16.18-12.18,24.68c-3.6,8.59-7.13,17.21-10.58,25.87
				c-7.1,17.79-13.76,35.73-20.09,53.8c-12.31,35.14-23.54,70.72-33.2,106.69c-18.57,69.21-29.31,141.47-9.08,211.58
				c9.76,33.81,27.85,68.22,57.2,88.97c8.34,5.9,18.16-4.45,12.35-12.66c-8.54-12.07-18.08-23.87-24.11-37.47
				c-6.01-13.55-12.85-26.42-17.53-40.56c-9.72-29.39-13.01-60.93-11.73-91.78c2.96-71.04,24.63-141.14,46.81-208.19
				c6.18-18.68,12.73-37.23,19.47-55.71c3.55-9.73,7.19-19.42,10.92-29.07c3.68-9.5,8.25-18.79,9.82-28.92
				C1262.94,297.55,1249.17,292.54,1243.28,300.42L1243.28,300.42z"/>
			<path class="st17" d="M1236.86,563c-10,34.19-17.55,68.74-22.17,104.07c-2.29,17.5-3.55,35.09-4.22,52.72
				c-0.68,17.72,1.57,36.03,3.92,53.61c1.01,7.59,13.09,7.87,13.66-0.08c1.21-16.95,3.54-33.92,4.19-50.85
				c0.67-17.62,2.05-35.23,3.66-52.79c3.17-34.5,8.59-68.99,16.16-102.79C1253.99,558.21,1239.38,554.37,1236.86,563L1236.86,563z"
				/>
			<path class="st17" d="M1704.72,491.54c40.87,75.48,55.32,163.09,62.42,247.55c1.84,21.89,0.63,43.8-0.18,65.7
				c-0.32,8.78,13.44,14.03,16.17,4.14c11.08-40.17,7.12-85.32,1.29-126.07c-6.61-46.21-18.28-92.07-34.47-135.86
				c-7.94-21.47-17.14-42.53-28.52-62.41C1715.76,474.67,1699.13,481.2,1704.72,491.54L1704.72,491.54z"/>
			<path class="st17" d="M1059.1,885.19c8.19-24.77-9.16-48.41-26.74-64.38c-17.02-15.46-38.32-25.32-60.62-30.27
				c-46.08-10.23-93.97,4.03-130.2,33.39c-38.84,31.47-66.48,79.1-72.79,128.84c-6.63,52.27,15.54,100.64,55.9,133.52
				c22.49,18.32,49.66,30.87,77.73,37.81c14.61,3.61,29.52,5.82,44.52,7.01c7.96,0.63,16.65,1.89,24.47,0.06
				c7.82-1.83,16.02-1.98,24.03-2.84c11.82-1.28,11.96-20.06-0.13-20.99c-5.7-0.44-11.71-0.52-17.33-1.6
				c-5.87-1.13-11.19-2.81-17.23-3.31c-12.61-1.03-25.17-2.73-37.56-5.31c-21.51-4.49-43.33-11.52-62.18-23.03
				c-33.52-20.46-59.47-52.74-62.98-92.85c-6.87-78.43,62.68-165.72,143.65-165.84c20.38-0.03,41.35,5.14,59.24,14.95
				c16.41,9,42.16,29.12,40.07,50.21C1039.95,890.85,1055.62,895.72,1059.1,885.19L1059.1,885.19z"/>
			<path class="st17" d="M881.85,983.82c25.08,15.75,48.5,34,71.11,53.08c2.13,1.79,4.13,3.86,6.84,4.8
				c1.32,0.46,3.92,0.38,5.03,1.02c-0.8-0.46-0.94-0.24-0.48,0.32c1.06,1.29,4.51,2.11,5.98,2.34c2.98,0.48,5.87,0.14,8.49-1.41
				c5.21-3.08,6.39-9.88,4.16-15.24c-0.26-0.61-0.64-1.21-0.95-1.8c-0.2-0.38-1.75-2.6-0.97-1.21c0.52,0.92,0.06-0.02-0.09-0.57
				c-0.94-3.45-1.83-5.89-4.17-8.54c-10.21-11.62-22.58-21.62-35.52-30.04c-15.03-9.78-30.62-18.01-47.37-24.4
				c-5.77-2.2-12.5,0.11-15.44,5.58C875.73,972.86,876.5,980.46,881.85,983.82L881.85,983.82z"/>
			<path class="st17" d="M934.49,998.27c-6.45,0.03-12.51,0.93-18.57,3.3c-5.4,2.11-10.62,5.29-14.95,9.14
				c-5.14,4.57-9.24,9.59-12.05,15.9c-1.34,3.01-2.33,6.25-2.97,9.48c-0.39,1.96-0.68,3.98-0.45,5.98c0.33,2.86,1.77,5.19,3.35,7.5
				c2.7,3.95,10.06,5.23,13.6,1.67c0.43-0.44,0.89-0.84,1.34-1.26c1.5-1.41,2.71-2.86,3.56-4.75c0.54-1.19,0.76-2.54,1.08-3.81
				c-0.24,0.95-0.49,1.9-0.73,2.86c0.98-3.65,2.33-7.18,4.16-10.48c-0.5,0.9-1,1.8-1.5,2.7c1.03-1.79,2.08-3.55,3.07-5.37
				c-0.5,0.9-1,1.8-1.51,2.7c1.85-3.32,4.11-6.36,6.75-9.09c-0.7,0.72-1.4,1.43-2.1,2.15c2.67-2.7,5.64-5.04,8.91-6.96
				c-0.81,0.47-1.62,0.95-2.43,1.42c2.09-1.19,4.26-2.22,6.53-3.02c0.48-0.17,0.97-0.31,1.46-0.48c1.61-0.54-2.56,0.59,0.01,0.01
				c1.18-0.27,2.37-0.47,3.57-0.63c4.74-0.62,8.23-4.84,8.2-9.53C942.79,1003.43,939.26,998.25,934.49,998.27L934.49,998.27z"/>
			<path class="st17" d="M1139.18,689.2c-20.3,20.16-36.98,42.89-53.7,66.01c-8.89,12.28-17.52,24.75-26.66,36.85
				c-4.88,6.47-9.37,12.81-13.72,19.62c-4.6,7.19-10.58,13.13-12.67,21.57c-1.59,6.43,6.08,10.31,11.23,8.53
				c7.63-2.63,12.82-9.8,18.62-15.1c6.22-5.67,11.47-11.52,16.66-18.15c9.37-11.97,18.35-24.21,26.86-36.8
				c15.58-23.03,30.55-46.66,47.67-68.6C1160.26,694.44,1147.39,681.04,1139.18,689.2L1139.18,689.2z"/>
			<path class="st17" d="M1134.35,773.76c-14.38,14.05-29.47,27.4-44.39,40.87c-8.5,7.68-17.05,15.24-24.98,23.51
				c-6.15,6.42-13.27,12.63-17.69,20.38c-1.47,2.58-1.85,5.53,0.1,8.03c1.64,2.1,5.28,3.45,7.77,2.04
				c7.95-4.51,14.5-10.83,21.49-16.69c8.58-7.19,16.61-14.94,24.76-22.62c14.66-13.81,29.49-27.5,43.61-41.88
				c3.28-3.34,4.65-8.13,1.49-12.17C1143.88,771.88,1137.72,770.47,1134.35,773.76L1134.35,773.76z"/>
			<path class="st17" d="M785.9,824.19c-28.6-43.22-54.12-88.51-70.98-137.68c-16.55-48.26-25.35-100.18-25.21-151.23
				c0.08-29.52,1.6-59.75,5.8-88.98c-6.92,0.04-13.85,0.08-20.77,0.13c3.71,27.31,11.29,54.69,19.15,81.07
				c7.76,26.03,17.44,51.38,30.19,75.4c23.17,43.62,56.1,83.5,99.25,108.55c12.36,7.18,24.63,12.01,38.32,16.01
				c13.22,3.86,26.63,7.14,40.44,5.67c8.96-0.95,10.59-14.28,2.13-17.38c-10.31-3.78-21.07-5.93-31.4-9.75
				c-10.43-3.86-20.06-9.34-29.85-14.59c-18.96-10.18-36.56-23.86-51.52-39.3c-34.27-35.39-56-79.83-72.13-125.92
				c-9.8-28-15.88-56.89-24.54-85.19c-2.57-8.39-17.03-8.47-19.4,0.15c-7.28,26.43-12.76,52.69-13.77,80.17
				c-1.02,27.87,0.25,55.85,4.02,83.48c7.34,53.71,24.61,107.37,50.5,155c15.17,27.91,32.55,53.35,54.9,76
				C779.47,844.36,792.71,834.49,785.9,824.19L785.9,824.19z"/>
			<path class="st17" d="M746.36,415.17c11.54-41.44,29.94-84.26,51.16-119.88c11.07-18.58,23.62-36.15,37.07-53.07
				c6.61-8.31,13.5-16.39,20.67-24.23c7.9-8.64,11.61-12.41,20.42-20.79c15.47-14.69,31.9-28.35,49.1-40.97
				c8.67-6.36,17.53-12.46,26.56-18.3c4.31-2.79,8.66-5.51,13.05-8.18c2.31-1.41,4.64-2.8,6.97-4.17c-2.56,1.5-0.14,0.09,0.32-0.18
				c1.64-0.95,3.29-1.89,4.94-2.82c38.62-21.81,79.55-39.38,121.79-52.87c40.62-12.97,84.29-22.3,129.36-28.04
				c22.61-2.88,45.34-4.77,68.11-5.67c5.41-0.21,10.83-0.37,16.25-0.48c2.57-0.05,5.13-0.09,7.7-0.11c5.62-0.05-3.33-0.01,2.3-0.01
				c1.71,0,3.42,0,5.13,0.01c11.4,0.07,22.8,0.38,34.18,0.94c45.22,2.22,90.27,8.34,134.37,18.59c11.56,2.69,17.27,4.15,29.67,7.69
				c10.68,3.05,21.29,6.36,31.81,9.93c20.82,7.07,41.3,15.17,61.28,24.35c9.88,4.54,19.64,9.34,29.26,14.42
				c4.78,2.52,9.52,5.13,14.26,7.73c0.54,0.3,3.01,1.66,0.19,0.09c1.18,0.66,2.35,1.32,3.53,1.99c2.58,1.47,5.14,2.95,7.69,4.46
				c18.42,10.87,36.22,22.81,53.18,35.85c8.41,6.46,16.62,13.19,24.59,20.18c8.15,7.14,15.61,14.19,21.13,19.77
				c14.92,15.08,29.08,30.91,41.98,47.76c6.51,8.51,13.62,16.23,19.71,25.1c7.77,11.31,28-0.1,21.17-12.36
				c-6.02-10.8-10.51-20.61-17.58-30.94c-5.99-8.75-12.32-17.28-18.94-25.58c-14.12-17.7-29.87-33.98-46.49-49.35
				c-32.93-30.46-70.08-56.35-109.7-77.34c-81.42-43.12-172.9-67.23-264.43-75.45c-94.57-8.5-190.16-0.2-281.68,25.04
				c-86.84,23.95-170.34,64.55-238.83,123.6c-67.74,58.4-123.24,136.98-142.11,225.49c-2.37,11.1-4.76,22.16-6.57,33.36
				C727.36,420.65,743.56,425.21,746.36,415.17L746.36,415.17z"/>
			<path class="st17" d="M713.26,449.77c2.78-3.14,4.83-6.89,7.33-10.27c2.37-3.21,4.91-6.31,7.42-9.42
				c2.66-3.31,5.43-6.54,8.17-9.78c1.29-1.52,2.61-3.01,3.97-4.47c0.56-0.6,2.8-2.93,0.5-0.56c1.22-1.25,2.44-2.45,3.47-3.86
				c1.15-1.57,2.42-3.06,3.57-4.63c2.49-3.39,3.87-8.76,0.8-12.36c-2.81-3.28-7.57-4.15-11.51-2.5c-1.85,0.77-3.62,1.93-5.35,2.93
				c-2.36,1.37-4.35,2.58-6.36,4.37c-1.67,1.49-3.3,3.03-4.89,4.61c-3.53,3.5-6.81,7-9.71,11.04c-3.11,4.33-5.73,8.95-8.12,13.72
				c-2.37,4.71-4.61,9.46-5.53,14.68c-0.66,3.78,2.01,8.25,5.64,9.52C706.67,454.19,710.48,452.91,713.26,449.77L713.26,449.77z"/>
			<path class="st17" d="M693.53,449.92c1.74-11.61,2.64-21.28,7.03-31.88c0.39-0.94,0.8-1.88,1.24-2.8
				c0.15-0.32,1.67-3.34,1.11-2.29c-0.57,1.06,1.07-1.79,1.26-2.09c0.51-0.8,1.03-1.6,1.58-2.38c1.25-1.8,2.6-3.53,4.03-5.2
				c0.71-0.83,1.45-1.63,2.19-2.43c0.61-0.64,0.43-0.46-0.54,0.54c0.44-0.44,0.89-0.87,1.34-1.3c6.49-6.15,14.02-10.52,21.1-15.85
				c3.98-2.99,7.68-6.39,11.72-9.37c2.11-1.56,4.39-3.01,6.37-4.74c2.5-2.19,3.81-5.44,5.34-8.34c2.62-4.96-2.71-9.63-7.32-9.37
				c-3.57,0.2-6.59,0.31-9.84,1.99c-2.31,1.2-4.62,2.4-6.93,3.6c-4.99,2.59-10.41,4.64-15.08,7.73c-8.6,5.7-16.56,12.24-23.43,19.95
				c-15.28,17.16-21.51,41.71-18.34,64.31C677.71,459.87,692.08,459.64,693.53,449.92L693.53,449.92z"/>
			<path class="st17" d="M766.27,336.7c-19.06-17.79-41.65-31.19-67.25-36.87c-23.43-5.2-48.53-4.78-71.9,0.57
				c-50.26,11.52-95.64,39.65-133.83,73.67c-85.12,75.81-133.72,182.57-161.26,291.45c-30.36,120.04-35.57,245.56-33.22,368.85
				c2.61,136.45,19.34,272.12,52.49,404.56c31.77,126.94,75.74,255.25,73.18,387.69c-0.31,16.19-1.39,32.36-2.97,48.48
				c6.25-4.88,12.5-9.77,18.76-14.65c-15.45,0.01-30.9,0.02-46.35,0.03c-13.45,0.01-24.53,14.23-14.93,26.4
				c26.37,33.43,62.56,59.21,102.47,73.97c19.7,7.29,40.58,12.14,61.52,13.9c11,0.92,21.94,0.89,32.92-0.33
				c10.78-1.2,20.78-4.93,30.72-9.16c9.02-3.84,8.3-20.19-2.78-20.27c-9.91-0.08-19.72-1.03-29.62-0.99
				c-9.07,0.03-18.28-0.35-27.33-1.07c-18.37-1.48-36.35-5.33-53.66-11.65c-35.16-12.85-65.68-34.76-88.36-64.6
				c-4.98,8.8-9.96,17.6-14.93,26.4c15.42,0.27,30.83,0.53,46.25,0.8c9.05,0.16,17.62-4.85,18.76-14.65
				c15.09-129.7-20.82-258.15-53.76-382.29c-16.89-63.63-32.7-127.43-43.83-192.36c-11.28-65.82-18.62-132.3-22.54-198.96
				c-7.17-121.93-5.66-246.6,15.12-367.23c18.55-107.61,55.37-219.42,127.39-303.61c58.23-68.07,151.13-132.52,244.27-100.91
				c12.19,4.14,23.72,9.53,34.65,16.36C765.54,356.03,774.14,344.05,766.27,336.7L766.27,336.7z"/>
			<path class="st17" d="M686.8,664.49c5.9,191.15,55.87,376.85,102.56,561.25c23.31,92.04,46.68,184.11,65.53,277.19
				c9.4,46.42,17.68,93.07,24.31,139.97c6.07,42.99,12,86.61,12.08,130.11c0.08,43.94-6.03,90.79-30.39,128.42
				c-11.73,18.12-26.83,33.19-44.89,45.01c-18.52,12.12-39.83,18.62-60.84,24.94c-6.84,2.06-10.15,10.86-8.33,17.19
				c2.15,7.46,8.41,10.81,15.86,10.64c42.53-0.96,84.02-28.15,111.14-59.48c27.78-32.09,42.03-73.79,47.44-115.37
				c5.55-42.71,2.55-86.24-2.2-128.87c-5.36-48.07-12.69-95.92-21.4-143.49c-35.14-191.95-92.61-378.73-135.78-568.85
				c-24.06-105.92-44.81-213.08-57.9-320.96C702.61,650.85,686.47,653.59,686.8,664.49L686.8,664.49z"/>
			<path class="st17" d="M634.09,473.81c-38.38,99.4-58.36,204.55-65.29,310.68c-6.97,106.86-0.85,213.99,12.03,320.17
				c13.5,111.29,34.52,221.5,55.7,331.53c21.43,111.32,43.17,222.67,57.95,335.11c3.64,27.69,6.86,55.44,9.54,83.24
				c2.47,25.61,5.45,51.59,3.51,77.33c-1.7,22.66-7.35,46.3-22.86,63.64c-12.46,13.94-29.88,22.23-48.44,23.37
				c-8.92,0.55-18.18-0.8-26.44-4.27c-8.33-3.5-13.26,7.57-7.27,13.03c32.93,29.97,83.69,6.26,106.15-25.3
				c30.03-42.2,23.27-99.35,18.53-147.75c-11.31-115.47-31.87-229.77-53.84-343.62c-21.88-113.39-45.23-226.55-62.37-340.79
				c-16.37-109.05-26.52-219.24-25.43-329.59c1.08-109.53,14.51-219.43,45.51-324.66c3.8-12.9,7.9-25.71,12.23-38.45
				C645.38,471.47,636.42,467.79,634.09,473.81L634.09,473.81z"/>
			<path class="st17" d="M761.1,1941.26c-2.79,20.03-11.84,39.26-25.32,54.29c-6.63,7.39-14.03,13.9-22.49,19.17
				c-8.78,5.46-18.86,8.52-27.5,14.03c-5.51,3.51-2.36,12.55,3.65,13.17c11.95,1.22,24.83-4.93,34.82-11.03
				c10.2-6.23,19.71-14.34,27.2-23.69c15.19-18.95,23.62-41.7,23.05-66.01C774.32,1933.32,762.13,1933.91,761.1,1941.26
				L761.1,1941.26z"/>
			<path class="st17" d="M581,1984.11c11.3,8.09,24.52,13.25,38.3,15.05c6.84,0.89,14.03,1.1,20.85,0.01
				c7.56-1.22,17.79-2.72,21.87-9.92c2.64-4.66,2.39-12.36-4.03-14.2c-1.72-0.49-3.39-1.01-5.17-1.15c-2.82-0.21-5.1,0.63-7.69,1.5
				c-0.36,0.12-4.28,1.28-2.52,0.82c-1.42,0.37-2.86,0.68-4.31,0.96c-2.88,0.55-5.81,0.99-8.72,1.35c-1.46,0.18-2.92,0.31-4.38,0.4
				c-0.73,0.05-1.46,0.08-2.19,0.11c-1.23,0.03-1.46,0.03-0.68,0.02c-11.11,0-22.04-2.44-31.75-7.85
				c-3.79-2.11-8.41-2.14-11.24,1.66C576.78,1976.32,577.46,1981.58,581,1984.11L581,1984.11z"/>
			<path class="st17" d="M988.9,1151.99c30.12,33.06,65.7,59.11,105.92,78.7c42.67,20.78,90.06,36.42,137.24,42.49
				c28.88,3.72,58.6,8.48,87.65,4.83c13.53-1.7,12.49-20.66-0.14-23.01c-24.16-4.5-48.86-5.29-73.17-9.21
				c-22.91-3.69-45.83-8.63-68.19-14.83c-42.11-11.66-83.21-28.04-120.39-51.2c-19.7-12.27-38.59-25.57-55.68-41.34
				C994.26,1131.16,981.65,1144.04,988.9,1151.99L988.9,1151.99z"/>
			<path class="st17" d="M1200.69,1392.37c24.3-4.15,47.95,0.88,67.23,13.73c10.83,7.21,17.59,13.75,25.14,24.1
				c3.21,4.4,6.84,9.21,9.46,13.52c2.19,3.59,5.01,5.87,7.22,9.3c1.84,2.85,3.33,5.69,5.65,8.19c4.43,4.79,12.27,3,13.39-3.71
				c0.7-4.21,0.17-8.1-0.54-12.27c-0.65-3.79-0.46-7.78-1.71-11.5c-2.46-7.33-6.51-14.85-10.98-21.11
				c-8.28-11.61-19.17-22.31-31.29-29.88c-25.74-16.07-57.3-20.87-86.79-14.12c-6.31,1.44-11.19,6.66-10.27,13.48
				C1188.05,1388.35,1194.29,1393.46,1200.69,1392.37L1200.69,1392.37z"/>
			<path class="st17" d="M1220.16,1353.64c25.98-4.38,50.81,3.53,73.12,16.63c11.82,6.94,22.38,15.35,32.53,24.52
				c4.83,4.36,9.39,9.05,14.25,13.37c5.26,4.68,9.49,10.44,16.02,13.41c6.54,2.97,13.11-3.23,12.49-9.76
				c-0.73-7.68-6.26-14.42-10.43-20.67c-4.4-6.61-10.42-12.66-16.22-18.04c-11.3-10.47-24.34-19.31-37.96-26.46
				c-26-13.65-57.67-19.61-86.42-12.45C1205.55,1337.16,1207.44,1355.79,1220.16,1353.64L1220.16,1353.64z"/>
			<path class="st17" d="M1249.05,1346.08c0.83-0.72,1.72-1.34,2.59-2c0.38-0.29,2.04-1.26,0.1-0.15c0.48-0.28,0.97-0.54,1.47-0.8
				c2.48-1.29,5.06-2.37,7.67-3.35c1.45-0.55,2.94-1.15,4.43-1.56c1.74-0.47-1.31,0.31,0.48-0.02c1.5-0.28,2.97-0.72,4.43-1.16
				c3.45-1.04,6.89-2.1,10.36-3.09c7.46-2.11,14.96-4.08,22.42-6.18c4.04-1.14,7.93-2.65,11.83-4.16c5.35-2.08,10.21-3.95,13.3-9.11
				c3.06-5.12,2.48-13.52-4.42-15.56c-3.1-0.92-6.08-1.8-9.36-1.16c-2.64,0.51-5.2,1.56-7.76,2.39c-4.21,1.37-8.49,2.54-12.65,4.07
				c-7.83,2.88-15.7,5.65-23.51,8.57c-3.3,1.23-6.73,2.37-9.9,3.91c-1.03,0.57-2.05,1.17-3.04,1.8c-0.55,0.36-0.6,0.38-0.15,0.08
				c1.09-0.51-1.42,0.59-1.64,0.7c-1.38,0.66-2.75,1.34-4.11,2.06c-6,3.19-11.32,6.66-15.94,11.66c-3.14,3.4-2.03,9.4,1.05,12.32
				C1239.96,1348.41,1245.44,1349.2,1249.05,1346.08L1249.05,1346.08z"/>
			<path class="st17" d="M1398.65,1395.62c1.21-1.59,2.79-3.09,4.22-4.75c0.96-1.11,1.85-2.17,2.56-3.45
				c-0.14,0.25,1.88-3.4,1.02-1.87c2.13-3.78,4.51-7.44,7.03-10.98c2.54-3.55,5.21-7.05,7.95-10.45c1.37-1.71,2.79-3.39,4.26-5.02
				c0.62-0.7,1.28-1.37,1.89-2.07c-2.11,2.41,0.28-0.26,0.65-0.61c1.34-1.27,2.73-2.49,4.16-3.65c0.85-0.69,1.73-1.36,2.63-1.99
				c0.77-0.54,2.72-2.57,0.57-0.47c1.19-1.16,3.46-1.45,4.91-2.15c-2.39,1.16-0.33,0.07,0.78-0.11c0.36-0.05,0.72-0.1,1.08-0.15
				c1.46-0.1,1.2-0.13-0.78-0.08c0.17-0.24,2.01,0.2,2.26,0.22c2.89,0.32-0.17-0.26-0.28-0.14c0.13-0.14,2.39,0.93,2.56,0.99
				c2.25,0.86-1.4-1.22-0.34-0.18c0.5,0.49,1.22,0.92,1.8,1.34c2.27,1.62-1.55-2.25-0.19-0.08c0.48,0.76,2.52,3.11-0.04-0.31
				c1.04,1.4,1.66,3.2,2.7,4.65c2.79,3.88,7.97,5.74,12.61,5.13c0.08-0.01,0.15-0.02,0.23-0.03c-2.92-0.75-5.83-1.5-8.75-2.25
				c-3.13-2.73,0.85,0.93,1.67,1.53c3.7,2.69,7.94,2.14,11.59-0.14c1.46-0.92,2.67-2.36,3.51-3.87c-1.67,1.31-3.35,2.62-5.02,3.92
				c0.06-0.03,0.13-0.06,0.19-0.08c5.67-2.48,8.98-8.35,8.3-14.46c-1.42-12.66-15.21-21.33-26.75-23.1
				c-11.42-1.76-23.2,3.37-31.74,10.68c-8.67,7.42-15.68,17.12-21.13,27.07c-2.47,4.51-4.71,9.14-6.65,13.9
				c-1.25,3.06-2.51,6.1-2.94,9.4c-0.35,2.72-0.13,5.43-0.26,8.13C1384.56,1397.52,1393.8,1402.02,1398.65,1395.62L1398.65,1395.62z
				"/>
			<path class="st17" d="M1469.02,1191.74c27.88,10.7,59.24,10.39,88.83,11.42c30.41,1.05,60.86,1.87,91.21,4.17
				c14.89,1.13,29.76,2.62,44.55,4.72c4.48,0.64,13.41,0.21,17.12,3.4c1.56,1.35,2.29,4.81,2.76,7.05
				c2.75,13.09,1.91,27.6,1.84,40.9c-0.08,14.92-0.78,29.83-1.65,44.73c-0.87,14.89-2.22,29.78-3.59,44.63
				c-0.65,6.99-2.81,15.58,1.05,21.99c3.26,5.41,9.21,7.74,15.13,5.17c6.93-3.01,8.6-10.89,10.04-17.5
				c1.7-7.82,3.38-15.67,4.62-23.58c2.3-14.69,3.79-29.63,4.6-44.47c0.86-15.7,1.08-31.41,0.88-47.13
				c-0.16-12.89,0.07-26.05-3.95-38.45c-9.59-29.53-44.83-28.71-70.44-30.93c-34.08-2.96-68.3-3.5-102.48-4.23
				c-33.15-0.72-68.74-3.86-100.6,6.31C1463.51,1181.66,1464.11,1189.85,1469.02,1191.74L1469.02,1191.74z"/>
			<path class="st17" d="M1465.42,1595.72c25.71,14.83,55.97,19.69,85.1,23.28c29.42,3.62,59.41,4.16,89,2.41
				c25.51-1.52,49.8-2.53,70.19-19.81c8.65-7.33,13.86-16.38,16.33-27.45c2.48-11.12,3.58-24.79-1.48-35.19
				c-2.58-5.31-11.66-6.49-13.7,0.11c-4.83,15.65,4.12,45.66-18.15,51.26c-8.77,2.21-19.13,0.47-28.09,0.32
				c-13.43-0.22-26.95-0.07-40.38,0.15c-25.36,0.4-50.92-0.09-76.2-2.27c-25.55-2.2-50.9-7.87-76.58-7.9
				C1464.25,1580.6,1457.19,1590.98,1465.42,1595.72L1465.42,1595.72z"/>
			<path class="st17" d="M1543.42,1283.81c0.79,2.74,0.23,0.77,0.15,0.07c-0.16-1.47,0.66-0.46-0.05,0.81
				c0.11-0.2,0.08-0.98,0.12-1.22c0.33-2.24-0.56,1.56-0.27,0.87c0.18-0.43,0.33-0.9,0.47-1.35c0.24-0.95,0.48-1.9,0.73-2.85
				c-0.58,2.16-0.71,2.69-0.39,1.62c0.36-0.98,0.74-1.92,1.24-2.84c-0.51,0.92-1.02,1.84-1.54,2.76c0.45-0.81,0.98-1.45,1.62-2.12
				c-0.8,0.82-1.6,1.64-2.4,2.46c1.06-1.04,2.27-1.85,3.4-2.8c1.19-1,2.33-1.94,3.66-2.74c-1.12,0.65-2.24,1.31-3.35,1.96
				c1.31-0.74,2.66-1.32,4.1-1.73c-1.24,0.34-2.49,0.67-3.73,1.01c1.14-0.29,2.27-0.45,3.44-0.49c-1.3,0.01-2.6,0.01-3.9,0.02
				c1.03,0,2.01,0.11,3.01,0.33c-1.28-0.33-2.57-0.65-3.85-0.98c1.03,0.27,1.98,0.64,2.93,1.13c-1.2-0.67-2.39-1.33-3.59-2
				c0.13,0.08,0.27,0.15,0.4,0.23c-2.09-3.54-4.18-7.08-6.27-10.62c0.65,5.37,1.78,10.57,1.82,16.01c-0.01-1.39-0.02-2.79-0.02-4.18
				c-0.03,2.79-0.3,5.53-0.92,8.26c0.35-1.37,0.7-2.74,1.05-4.11c-0.52,2.02-1.22,3.92-2.19,5.77c0.7-1.27,1.41-2.53,2.11-3.8
				c-1.06,1.89-2.33,3.61-3.84,5.17c1.06-1.08,2.12-2.17,3.17-3.25c-1.24,1.22-2.58,2.27-4.07,3.17c1.32-0.77,2.63-1.54,3.95-2.31
				c-1.31,0.75-2.64,1.36-4.1,1.78c1.43-0.39,2.86-0.77,4.28-1.16c-1.29,0.33-2.55,0.49-3.88,0.51c1.46-0.01,2.92-0.02,4.38-0.02
				c-0.38-0.01-0.76-0.03-1.14-0.06c4.97,4.91,9.94,9.81,14.9,14.72c-1.48-5.55-2.87-11.15-2.98-16.93
				c0.01,1.47,0.02,2.94,0.02,4.41c0.01-2.46,0.26-4.85,0.85-7.24c-0.36,1.43-0.73,2.86-1.09,4.29c0.4-1.4,0.87-2.73,1.55-4.02
				c-0.73,1.31-1.46,2.62-2.19,3.93c0.8-1.41,1.75-2.67,2.86-3.84c-1.09,1.11-2.17,2.22-3.26,3.33c1.15-1.14,2.4-2.12,3.78-2.96
				c-1.34,0.79-2.69,1.57-4.03,2.36c1.22-0.69,2.47-1.25,3.81-1.66c-1.45,0.39-2.91,0.79-4.36,1.18c1.15-0.31,2.27-0.49,3.46-0.53
				c-1.49,0.01-2.98,0.02-4.46,0.02c2.14,0.01,4.27,0.03,6.41-0.01c-1.48,0.01-2.96,0.02-4.44,0.02c0.82,0.02,1.61,0.11,2.41,0.29
				c-1.4-0.36-2.81-0.72-4.21-1.07c0.32,0.08,0.65,0.18,0.97,0.27c4.1,1.22,8.62,1.81,12.69-0.1c3.49-1.64,6.22-4.03,8.11-7.41
				c4.03-7.23,2.26-16.61-4.54-21.64c-3.54-2.62-8.21-4.67-12.64-5.01c-4.7-0.36-9.08,0.45-13.51,2.03
				c-3.14,1.12-6.22,2.99-8.84,5.04c-2.73,2.14-5.34,4.73-7.24,7.64c-5.08,7.74-6.61,16.18-6.32,25.3
				c0.23,7.24,2.43,14.28,4.37,21.19c1.53,5.44,8.28,10.09,13.74,10.43c7.81,0.49,14.65-1.34,21.22-5.56
				c3.95-2.54,7.49-6.25,9.98-10.24c3.49-5.6,5.77-11.52,6.49-18.12c0.62-5.63,0.27-11.5-0.69-17.08c-0.39-2.28-0.89-4.55-1.4-6.81
				c-0.65-2.83-1.24-5.54-2.72-8.05c-2.05-3.5-5.12-6.14-9.06-7.22c-3.98-1.09-6.55-1.47-10.72-1.3c-2.54,0.11-5,0.81-7.42,1.6
				c-3.67,1.2-7.2,3.4-10,6.05c-1.76,1.67-3.64,3.52-5.06,5.53c-2.1,2.96-2.91,6.12-3.72,9.58c-1.09,4.62-1.64,9.43-0.08,14.02
				c1.41,4.12,4.24,7.92,7.82,10.4c2.98,2.07,7.45,2.35,10.35-0.13C1543.89,1291.17,1544.51,1287.6,1543.42,1283.81L1543.42,1283.81
				z"/>
			<path class="st17" d="M1602.07,1289.09c0.43-0.59,0.89-1.14,1.39-1.68c-0.7,0.72-1.41,1.44-2.11,2.16
				c1.02-1.03,2.15-1.91,3.39-2.65c-0.91,0.53-1.82,1.07-2.73,1.6c1.35-0.78,2.78-1.36,4.28-1.77c-1.04,0.28-2.07,0.56-3.11,0.84
				c1.41-0.36,2.83-0.55,4.29-0.58c-1.11,0.01-2.21,0.01-3.32,0.02c0.92,0.02,1.83,0.21,2.72,0.43c-1.12-0.29-2.24-0.57-3.36-0.86
				c0.87,0.23,1.75,0.49,2.54,0.92c-1.07-0.6-2.14-1.19-3.22-1.79c0.46,0.36,0.91,0.74,1.33,1.14c-1.66-5.86-3.33-11.72-4.99-17.58
				c-0.69,1.94-1.09,3.95-1.58,5.94c0.33-1.3,0.66-2.6,0.99-3.9c-0.71,2.7-1.46,5.37-2.12,8.09c0.35-1.35,0.69-2.71,1.04-4.06
				c-0.53,2.04-1.32,3.98-2.34,5.82c0.7-1.26,1.4-2.51,2.1-3.77c-1.05,1.83-2.31,3.5-3.79,5.02c1.05-1.08,2.11-2.16,3.16-3.24
				c-1.41,1.41-2.97,2.63-4.69,3.64c1.32-0.77,2.64-1.55,3.96-2.32c-0.86,0.49-1.75,0.93-2.67,1.31c6.73,1.77,13.46,3.53,20.19,5.3
				c-0.05-0.08-0.09-0.16-0.14-0.24c0.78,1.33,1.56,2.66,2.34,3.99c-0.39-0.71-0.69-1.44-0.92-2.22c0.39,1.45,0.78,2.89,1.17,4.34
				c-0.24-0.95-0.4-1.88-0.42-2.87c0.01,1.48,0.02,2.96,0.02,4.44c0-1.08,0.14-2.13,0.39-3.17c-0.37,1.44-0.73,2.88-1.1,4.32
				c0.31-1.14,0.74-2.22,1.31-3.26c-0.73,1.32-1.47,2.64-2.2,3.96c0.59-1.02,1.28-1.96,2.09-2.81c-1.09,1.12-2.19,2.24-3.28,3.36
				c0.76-0.76,1.59-1.42,2.51-1.97c-1.35,0.79-2.71,1.59-4.06,2.38c0.5-0.28,1.01-0.54,1.55-0.74c3.36-1.28,6.22-3.27,8.37-6.22
				c1.82-2.47,2.92-5.23,3.3-8.27c0.37-2.29,0.16-4.5-0.61-6.64c-0.42-2.31-1.4-4.38-2.95-6.21c-1.94-2.47-4.37-4.29-7.29-5.47
				c-0.75-0.33-1.54-0.54-2.37-0.64c-2.16-0.75-4.38-0.92-6.68-0.53c-0.75,0.1-3.4,0.81-4.9,1.36c-0.46,0.17-0.89,0.37-1.32,0.6
				c-2.04,1.06-4.53,2.35-6.33,3.99c-3.89,3.55-6.64,7.04-8.73,11.92c-0.93,2.18-1.44,4.6-1.91,6.89c-0.48,2.34-0.35,5.13-0.22,7.37
				c0.27,4.96,2.47,9.55,5.27,13.56c1.1,1.08,2.2,2.15,3.3,3.23c1.8,1.44,3.81,2.34,6.03,2.72c1.4,0.55,2.85,0.73,4.34,0.53
				c2.25,0.18,4.42-0.22,6.51-1.18c3.4-1.72,6.85-3.68,9.59-6.37c1.79-1.76,3.7-3.59,5.24-5.61c1.15-1.51,2.04-3.15,2.96-4.81
				c0.89-1.6,1.79-3.17,2.46-4.89c0.9-2.34,1.45-4.82,2.02-7.25c0.56-2.42,0.69-4.96,0.45-7.43c-0.23-2.38-1.08-4.84-1.68-7.08
				c0.35,1.29,0.7,2.59,1.05,3.88c-0.36-1.4-0.73-2.79-1.13-4.18c-0.72-1.28-1.47-2.55-2.23-3.81c0.69,1.18,1.38,2.36,2.07,3.53
				c-0.1-0.19-0.21-0.37-0.32-0.55c-0.68-1.16-1.35-2.31-2.03-3.47c-1.21-1.67-2.73-2.93-4.57-3.76c-1.06-0.78-2.25-1.25-3.55-1.42
				c-1.84-0.64-3.73-0.79-5.69-0.45c-2.47,0.27-4.85,0.65-7.26,1.3c-2.44,0.66-4.87,1.31-7.09,2.55c-1.71,0.96-3.49,1.92-5.04,3.14
				c-1.51,1.19-2.86,2.64-4.15,4.05c-1.95,2.14-3.46,4.81-4.5,7.49c-1.99,5.1,0.15,10.91,4.89,13.55
				C1592.65,1294.66,1598.82,1293.54,1602.07,1289.09L1602.07,1289.09z"/>
			<path class="st17" d="M1832.59,767.51c-4.7,36.09-12.97,71.8-19.51,107.59c-7.94,43.47-16.49,86.82-24.69,130.24
				c-1.81,9.56-2.66,19.38-4.14,29.02c-1.27,8.25-2.78,15.96-1.76,24.3c1.25,10.21,13.95,9.95,18.12,2.22
				c7.01-12.99,8.11-29.7,11.97-43.92c5.58-20.58,8.29-42.38,11.94-63.38c7.57-43.58,15.1-87.16,20.55-131.07
				c2.18-17.54,3.82-35.26,4.48-52.92C1849.95,758.76,1834.04,756.44,1832.59,767.51L1832.59,767.51z"/>
			<path class="st17" d="M1703.32,1591.18c-1.97,22.35,1.31,44.81,3.72,67.04c2.48,22.89,6.86,45.59,12.41,67.94
				c5.52,22.2,12.12,44.58,21.44,65.51c4.78,10.74,10.5,21.06,16.46,31.18c5.74,9.76,15.33,17.67,23.58,25.54
				c9.01,8.6,23.16-4.17,18.6-14.53c-4.23-9.61-6.71-19.72-11.57-28.89c-4.96-9.36-9.24-19.01-13.49-28.71
				c-8.81-20.13-16.24-40.63-22.38-61.73c-5.92-20.3-10.43-41.09-14.77-61.77c-4.5-21.47-7.1-43.43-13.71-64.36
				C1720.36,1578.19,1704.21,1581.06,1703.32,1591.18L1703.32,1591.18z"/>
			<path class="st17" d="M1190.73,1714.84c-14.28,22.23-25.91,45.29-38.89,67.45c-12.83,21.92-25.25,44.06-37.25,66.44
				c-5.11,9.54,3.72,21.98,13.57,22.9c85.69,7.98,171.6,13.45,257.65,15.4c83.59,1.89,167.73,1.07,251.04-6.55
				c23.52-2.15,46.94-4.85,70.34-8c24.56-3.3,51.22-6.16,74.35-15.39c9.41-3.75,7.44-18.49-2.68-19.54
				c-21.74-2.26-44.84,0.65-66.57,2.54c-21.61,1.88-43.25,3.39-64.88,4.91c-40.93,2.87-81.94,5.24-122.95,6.52
				c-81.76,2.55-163.57,0.58-245.23-3.86c-49.01-2.66-98.01-6.02-146.98-9.4c4.53,7.63,9.05,15.27,13.57,22.9
				c22.57-44.61,49.27-87.61,64.1-135.61C1213.41,1714.34,1197.98,1703.55,1190.73,1714.84L1190.73,1714.84z"/>
			<path class="st17" d="M1200.32,1875.08c-7.06,56.29,4.32,111.02,25.47,163.13c2.07,5.11,7.25,9.3,12.84,9.74
				c122.04,9.69,245.37,10.41,367.52,2.32c17.68-1.17,35.34-2.53,52.99-4.06c8.45-0.74,16.9-1.51,25.35-2.33
				c10-0.97,19.64-1.2,28.79-5.65c13.06-6.35,9.36-22.85-3.58-26.14c-15.03-3.82-33.14,0.63-48.53,1.86
				c-15.13,1.21-30.28,2.29-45.43,3.24c-30.13,1.88-60.28,3.16-90.45,4.05c-58.94,1.74-117.85,1.02-176.78-0.66
				c-35.35-1.01-70.64-2.93-105.97-4.42c4.28,3.25,8.56,6.5,12.84,9.74c-21.68-48.2-33.1-98.17-35.07-150.94
				C1219.87,1863.32,1201.71,1864.01,1200.32,1875.08L1200.32,1875.08z"/>
			<path class="st17" d="M1731.32,1864.47c-4.26,25.49-8.86,51-13.54,76.44c-2.58,14.03-5.79,27.87-8.89,41.79
				c-1.12,5.02-2.14,11.88-3.18,15.82c-1.66,6.31-3.16,11.57-2.86,18.19c0.35,7.97,11.06,11.61,16.8,6.84
				c9.14-7.6,12.36-21.16,15.76-32.24c4.45-14.49,6.41-30.19,8.82-45.12c4.24-26.28,7.19-52.63,7.6-79.21
				C1752.02,1853.91,1733.56,1851.09,1731.32,1864.47L1731.32,1864.47z"/>
			<path class="st17" d="M1493.32,2044.64c-3.72,53.14-3.26,106.68-3.24,159.93c0.01,26.66,0.11,53.31,0.46,79.97
				c0.35,26.78,1.47,53.66,0.04,80.42c4.52-4.57,9.03-9.14,13.55-13.72c-33.8,4.38-67.18,10.48-101.21,13.33
				c-16.96,1.42-33.97,2.46-50.98,3.1c-4.02,0.15-11.65,1.68-15.15-0.92c-2.31-1.71-4.51-9.58-5.76-12.65
				c-20.4-50.18-35.21-101.57-36.85-156.01c-0.45-14.94-0.33-29.84,0.5-44.77c0.44-7.98,1.13-15.95,1.68-23.92
				c0.72-10.51-0.83-18.24-6.32-27.14c-2.54-4.12-9.97-4.93-13.42-1.65c-6.69,6.36-10.42,12.72-12.13,21.93
				c-1.54,8.32-2.21,16.9-2.97,25.32c-1.36,15.03-2.16,30.11-2.11,45.2c0.09,28.32,3.53,56.61,10.02,84.17
				c7.26,30.86,17.68,60.82,29.67,90.14c6.7,16.4,15.3,30.44,33.95,34.06c7.64,1.49,15.78,0.7,23.51,0.39
				c9.57-0.38,19.13-0.87,28.68-1.57c40.9-2.99,83.4-7.25,123.12-17.76c8.63-2.28,14.25-8.37,13.53-17.75
				c-2.06-26.9-1.57-53.99-1.84-80.96c-0.26-26.48-0.74-52.94-1.34-79.41c-1.21-53.25-1.98-106.8-6.92-159.86
				C1510.81,2034.1,1494.06,2034.04,1493.32,2044.64L1493.32,2044.64z"/>
			<path class="st17" d="M1667.4,2087.97c-9.63,5.4-10.09,21.03-10.93,30.92c-1.13,13.21-2.99,26.29-4.83,39.41
				c-3.66,26.15-8.79,52.18-14.61,77.93c-5.85,25.9-12.55,51.6-19.05,77.34c-1.63,6.45-3.3,12.89-4.79,19.38
				c-0.57,2.47-2.83,6.13,0.72,3.26c3.79-3.06-1-1.35-3.46-1.23c-8.84,0.42-18.01-0.17-27.07-0.67c-12.04-0.66-24.06-1.53-36.11-2.1
				c-5.97-0.28-12.03-0.43-17.98,0.13c-6.21,0.59-10.79,3.44-16.07,6.13c-7.79,3.96-8.67,15.6,0.15,19.13
				c4.67,1.87,8.94,4.72,13.94,5.62c5.6,1.01,11.5,1.19,17.18,1.55c12.03,0.77,24.04,1.83,36.06,2.66
				c11.46,0.79,22.94,1.36,34.43,1.09c15.06-0.35,26.25-7.64,30.34-22.61c7.91-28.93,14.25-58.48,20.82-87.74
				c6.46-28.77,12.2-57.66,15.06-87.03c1.6-16.42,1.9-32.88,1.51-49.37c-0.2-8.47-0.88-17.14-4.03-25.12
				C1677.27,2093.09,1672.6,2085.06,1667.4,2087.97L1667.4,2087.97z"/>
			<path class="st17" d="M1334.97,2340.18c29.32-15.75,56.41-37.47,89.05-46.28c13.02-3.52,26.57-4.37,39.91-2.48
				c6.74,0.96,13.18,2.69,19.61,4.91c8.28,2.85,14.08,7.19,23.22,7.1c6.29-0.06,12.16-8.07,10.71-14.06
				c-4.51-18.63-27.67-26.91-44.58-30.46c-17.09-3.59-35.72-2.05-52.52,2.3c-38.33,9.91-71.04,35.11-96.9,64.24
				C1317.26,2332.45,1326.65,2344.65,1334.97,2340.18L1334.97,2340.18z"/>
			<path class="st17" d="M1533.31,2277.76c7.49-0.33,14.61,0.69,21.98,1.82c8.11,1.24,13.09,2.36,20.85,5.26
				c3.57,1.33,7.04,2.86,10.47,4.52c1.72,0.83,3.42,1.67,5.11,2.55c0.73,0.38,1.82,1.01,0.47,0.24c0.82,0.47,1.64,0.96,2.44,1.45
				c2.3,1.41,4.54,2.85,6.92,4.14c2.2,1.2-0.24-0.19,1.08,0.58c0.83,0.48,1.65,0.97,2.46,1.47c4.71,2.89,8.53,5.78,14.01,7.16
				c9.68,2.43,16.47-9.47,13.26-17.47c-2.09-5.21-6.94-9.04-11.12-12.66c-3.94-3.42-7.97-5.94-12.55-8.45
				c-7.56-4.13-15.48-7.2-23.8-9.39c-18.07-4.76-36.02-5.51-54.32-1.43C1517.69,2260.41,1520.18,2278.34,1533.31,2277.76
				L1533.31,2277.76z"/>
			<path class="st17" d="M1278.54,2124.7c31.82,29.54,75.53,45.11,118.16,49.57c20.15,2.11,42.54,3.11,62.36-1.8
				c9.9-2.45,20.8-4.8,28.77-11.37c6.55-5.4,15.79-9.05,17.33-18.36c0.83-5.02-3.16-8.57-7.55-9.66
				c-6.25-1.56-14.28,3.38-19.58,3.65c-8.23,0.42-16.1,3.1-25.13,4.36c-18.34,2.56-36.13,4.16-54.65,2.7
				c-37.43-2.96-76.93-12.78-106.63-36.7C1280.43,2098.08,1268.42,2115.31,1278.54,2124.7L1278.54,2124.7z"/>
			<path class="st17" d="M1503.37,2129.24c24.95,19.17,61.48,22.74,91.68,18.45c16.01-2.27,32.25-6.7,46.47-14.55
				c6.83-3.77,13.19-10.4,18.48-16.11c5.34-5.78,8.95-11.53,10.83-19.21c1.73-7.11-8.33-12.18-13.53-7.66
				c-4.37,3.81-8.5,7.94-13.28,11.27c-4.65,3.24-9.6,4.48-14.68,6.82c-12.54,5.78-25.24,10.07-38.9,12.33
				c-23.91,3.96-53.48,5.86-74.91-7.73C1504.58,2105.91,1492.82,2121.14,1503.37,2129.24L1503.37,2129.24z"/>
			<path class="st17" d="M1405.95,850.57c-3.73-16.19-19.84-29.85-32.97-39.11c-11.67-8.23-24.57-15.21-38.07-19.94
				c-25.2-8.84-52.96-10.52-78.96-4.27c-53.7,12.9-97.72,54.12-115.96,106.15c-5.5,15.67-8.43,32.01-9.12,48.59
				c-0.77,18.59-0.01,36.97,7.61,54.14c5.51,12.42,27.73,11.58,28.09-3.85c0.34-14.3-1.28-28.5-0.57-41.9
				c0.32-6,0.91-12.01,1.92-17.94c1.09-6.36,2.62-12.08,3.8-16.22c6.89-24.17,16.16-41.02,32.99-59.46c0.39-0.43,2.5-2.63,0.25-0.34
				c0.82-0.84,1.67-1.66,2.52-2.48c2.11-2.03,4.29-4,6.52-5.91c4.43-3.77,9.08-7.28,13.93-10.5c5.87-3.89,4.28-2.96,10.78-6.19
				c5.39-2.68,10.95-5,16.65-6.93c1.02-0.35,7.29-2.24,4.55-1.5c2.76-0.74,5.56-1.35,8.37-1.89c5.64-1.08,11.35-1.77,17.09-2.07
				c7.09-0.37,20.33,0.92,30.45,3.13c3.09,0.67,11.43,3.32,16.8,5.51c6.25,2.55,12.14,5.49,17.02,8.5
				c6.5,4.01,12.87,8.4,18.93,13.05c6.61,5.07,13.02,11.56,21.06,14.18C1397.41,865.84,1408.12,859.97,1405.95,850.57
				L1405.95,850.57z"/>
			<path class="st17" d="M1630.02,864.2c5.78-3.42,12.2-6.53,18.52-8.83c1.47-0.54,2.91-1.13,4.39-1.63
				c0.68-0.23,6.14-1.79,3.46-1.11c3.97-1.01,7.94-1.63,12.01-2.06c3.77-0.4,7.54-0.74,11.33-0.93c4.03-0.2-0.15-0.19,3.9-0.01
				c2.17,0.1,4.34,0.19,6.51,0.37c4.42,0.37,8.81,0.98,13.16,1.81c1.77,0.34,3.53,0.73,5.28,1.12c4.26,0.96-1.93-0.56,0.63,0.16
				c1.53,0.43,3.05,0.87,4.57,1.33c8.41,2.54,16.51,5.8,24.28,9.91c-3.25-1.72,2.79,1.67,3.52,2.13c1.59,1,3.16,2.03,4.7,3.11
				c4.11,2.86,7.89,6.04,11.69,9.29c0.71,0.61,3.08,2.9,0.41,0.29c0.68,0.67,1.37,1.36,2.02,2.06c1.66,1.77,3.29,3.55,4.86,5.4
				c3.19,3.79,6.05,7.8,8.75,11.95c0.55,0.84,1.07,1.71,1.58,2.57c-1.87-3.18-0.14-0.19,0.28,0.64c1.04,2.08,2.12,4.12,3.08,6.23
				c2.22,4.86,4.06,9.87,5.63,14.98c-0.09-0.28,1.4,4.91,0.78,2.58c-0.41-1.53,0.68,2.94,0.81,3.54c0.68,3.12,1.25,6.26,1.7,9.42
				c0.97,6.75,1.21,13.47,1.45,20.27c0.25,7.05,0.33,12.56-0.39,19.97c-0.86,8.83-2.8,16.92-1.05,25.77
				c2.21,11.18,16.26,15.4,23.56,6.07c9.94-12.69,11.03-32.47,12.5-48.15c1.25-13.33-0.35-27.54-3.46-40.54
				c-5.6-23.38-16.76-45.02-33.86-62.09c-30.4-30.34-74.48-45.57-117.16-38.81c-19.73,3.12-42.11,12.29-53.36,29.63
				C1609.75,860.37,1620.68,869.73,1630.02,864.2L1630.02,864.2z"/>
			<path class="st18" d="M1290.24,854.26c-51.83,0-93.85,52.81-93.85,117.96c0,65.15,42.02,117.96,93.85,117.96
				c51.83,0,93.85-52.81,93.85-117.96C1384.08,907.07,1342.07,854.26,1290.24,854.26z M1264.42,941.16
				c-0.29,2.34-0.55,4.67-0.57,7.03c-0.07,7.85-5.39,13.94-12.48,15.94c-4.49,6.63-10.4,11.65-16.8,16.49
				c-4.11,3.1-10.4,2.71-14.83,0.84c-4.33-1.83-8.86-5.84-9.65-10.8c-0.58-3.66-1.16-7.39-1.17-11.11
				c-0.01-3.51,0.51-7.03,1.06-10.48c0.85-5.33,2.94-10.6,5.55-15.29c2.57-4.63,6.08-9.1,10.12-12.54c2.49-2.12,5.14-4.2,7.95-5.9
				c2.89-1.74,6.04-2.97,9.15-4.24c3.27-1.34,7.73-0.48,10.85,0.84c2.06,0.67,3.85,1.82,5.36,3.45c0.87,1.12,1.74,2.25,2.61,3.37
				c2.25,4.75,3.55,9.03,3.61,14.36C1265.22,935.78,1264.83,938.48,1264.42,941.16z"/>
			<path class="st18" d="M1695.48,872.25c-46.49-3.12-87.36,41.71-91.27,100.13c-3.92,58.42,30.6,108.3,77.1,111.41
				c46.49,3.12,87.36-41.71,91.28-100.13C1776.49,925.24,1741.98,875.36,1695.48,872.25z M1759.95,982.26
				c-1.96,1.85-4.22,3.09-6.77,3.74c-2.49,1.1-5.12,1.51-7.89,1.22c-2.79-0.08-5.34-0.83-7.66-2.26c-2.45-0.98-4.52-2.52-6.21-4.61
				c-0.24-0.28-0.46-0.58-0.67-0.88l-0.01-0.02c-0.46-0.57-0.9-1.15-1.33-1.75c-0.45-0.43-0.98-0.77-1.39-1.23
				c-2.33-2.68-3.86-5.77-4.59-9.25c-0.08-1.26-0.17-2.52-0.25-3.79c-0.33-0.8-0.61-1.62-0.94-2.41c-1.61-3.27-2.31-6.72-2.07-10.37
				c0.36-1.77,0.72-3.54,1.08-5.32c0.8-2.58,2.16-4.79,4.07-6.62c1-1.46,2.29-2.58,3.86-3.38c2.07-1.65,4.44-2.7,7.1-3.15
				c1.8-0.12,3.61-0.24,5.41-0.36c0.76,0.02,1.46,0.22,2.18,0.34c0.49-0.03,0.97-0.06,1.46-0.1c2.79,0.08,5.34,0.83,7.66,2.26
				c2.45,0.98,4.52,2.52,6.21,4.61c1.84,1.96,3.09,4.22,3.74,6.77c1.1,2.49,1.51,5.12,1.22,7.89c-0.07,1.1-0.03,2.2-0.05,3.29
				c0.01,0.09,0.03,0.17,0.05,0.26c1.03,1.81,1.86,3.73,2.3,5.83c0.12,1.8,0.24,3.61,0.36,5.41c-0.26,3.64-1.4,6.97-3.44,10
				L1759.95,982.26z"/>
			<path class="st17" d="M1847.28,284.04c84.78,74.63,156.67,171.45,180.35,283.57c21.91,103.76,6.58,219.65-62.05,303.47
				c-35.88,43.83-83.27,75.1-137.26,92.25c-12.77,4.05-6.72,23.88,6.01,22.21c112.87-14.78,194.88-118.21,222.26-222.81
				c30.15-115.19,7.68-240.55-54.26-341.56c-36.89-60.16-85.99-112.06-142.74-153.72C1848.74,259.49,1837.41,275.35,1847.28,284.04
				L1847.28,284.04z"/>
			<path class="st17" d="M1820.11,603.74c4.29,35.62,2.56,72-4.73,107.13c-3.55,17.11-8.64,33.87-15.04,50.12
				c-3.26,8.29-6.67,16.57-10.34,24.69c-3.68,8.12-8.52,16.26-8.7,25.38c-0.12,5.74,5.27,8.53,10.05,5.68
				c7.83-4.67,12.16-13.19,16.28-21.03c4.39-8.35,8.38-16.83,11.71-25.66c6.77-17.95,11.95-36.54,15.58-55.38
				c7.21-37.38,7.33-75.56,0.87-113.06C1834.05,591.6,1818.89,593.6,1820.11,603.74L1820.11,603.74z"/>
			<path class="st17" d="M1885.81,624.93c-4.26,32.36-13.43,64.69-28.76,93.6c-7.59,14.31-17.04,27.78-27.65,40.01
				c-10.8,12.45-24.02,22.18-35.25,34.07c-3.3,3.49,1.58,8.47,5.45,6.97c15.77-6.09,29.7-19.32,41.3-31.25
				c12.41-12.77,23.16-26.93,32.05-42.36c17.91-31.06,27.62-65.23,25.51-101.12C1898.02,617.48,1886.73,617.91,1885.81,624.93
				L1885.81,624.93z"/>
			<path class="st17" d="M1407.3,808.46c33.93,2.28,67.71,5.74,101.54,9.16c16.93,1.71,33.79,3.85,50.69,5.79
				c16.48,1.89,33.48,4.72,50.06,3.66c9.15-0.58,10.37-14.36,2.13-17.38c-15.55-5.7-32.94-7.45-49.33-9.54
				c-16.86-2.15-33.84-3.68-50.77-5.19c-33.91-3.03-68.03-4.23-102.05-4.98C1397.81,789.73,1395.17,807.65,1407.3,808.46
				L1407.3,808.46z"/>
			<path class="st17" d="M1629.98,703.29c-1.94,20.37-4.83,40.64-8.77,60.73c-1.9,9.67-4.02,19.3-6.39,28.87
				c-2.37,9.61-7.17,20.64-6.02,30.57c0.74,6.43,9.01,7.99,12.81,3.3c6.25-7.7,7.77-20.05,10.05-29.53c2.39-9.94,4.52-19.95,6.41-30
				c3.84-20.49,6.6-41.15,8.36-61.92C1647.33,694.7,1630.99,692.63,1629.98,703.29L1629.98,703.29z"/>
			<path class="st17" d="M1638.11,724.75c2.82,19.53,4.7,39.17,5.53,58.89c0.41,9.82,0.58,19.65,0.45,29.48
				c-0.12,9.56-0.58,20.03,1.38,29.42c0.97,4.67,8.36,6.64,10.04,1.23c5.76-18.56,3.22-40.57,2.05-59.67
				c-1.26-20.45-3.66-40.81-7.07-61.02C1649.16,715.15,1636.96,716.76,1638.11,724.75L1638.11,724.75z"/>
			<path class="st17" d="M1416.77,647.98c-5.27,28.57-9.08,57.27-10.64,86.28c-0.76,14.2-1.15,28.42-1.14,42.65
				c0,13.18-0.06,27.97,4.19,40.58c1.6,4.74,7.92,2.85,8.79-1.2c2.7-12.51,1.54-26.71,1.29-39.46c-0.29-14.69-0.12-29.39,0.45-44.07
				c1.07-27.93,3.04-55.87,6.44-83.62C1426.87,643.05,1417.86,642.05,1416.77,647.98L1416.77,647.98z"/>
			<path class="st17" d="M1785.66,1069.42c19.96,23,29.17,54.89,17.44,83.99c-5.3,13.16-14.23,24.06-24.96,32.92
				c-5.6,4.63-11.6,8.7-18.05,12.03c-8.54,4.4-18.93,8.14-24.85,15.89c-4.28,5.61-2.22,15.71,5.08,17.89
				c19.69,5.88,43.71-10.79,57.9-23.35c14.15-12.52,25.75-28.66,31.71-46.68c6.03-18.24,6.32-36.84,0.89-55.26
				c-5.81-19.71-18.77-35.5-33.52-49.37C1790.4,1050.99,1779.48,1062.31,1785.66,1069.42L1785.66,1069.42z"/>
			<path class="st17" d="M1820.75,980.69c29.68,11.23,46.67,40.12,39.15,70.45c-3.64,14.67-10.18,28.8-17.04,42.2
				c-6.02,11.74-14.18,22.06-20.2,33.68c-4.41,8.51,6.07,16.71,13.9,13.68c15.63-6.04,25.24-25.06,32.51-39.16
				c8.15-15.82,14.25-33.48,17.02-51.08c1.11-7.08,1.69-14.73,0.41-21.83c-1.75-9.69-7.19-18.63-12.38-26.82
				c-10.97-17.3-27.56-30.55-47.23-36.53C1816.83,962.23,1810.61,976.85,1820.75,980.69L1820.75,980.69z"/>
			<path class="st17" d="M1834.65,1146.16c25.63,50.61,47.81,106.64,52.95,163.59c2.45,27.19,1.06,55.89-7.08,82.09
				c-3.47,11.18-7.99,22.54-14.66,32.22c-3,4.35-5.93,9.16-9.74,12.79c-4.42,4.21-9.7,7.13-13.89,11.59
				c-4.54,4.85,1.25,11.39,6.57,11.13c9.73-0.48,18.69-8.08,26.07-13.78c7.9-6.1,13.65-15.3,18.45-23.91
				c11.06-19.85,16.08-43.49,18.25-65.93c4.61-47.66-6.31-98.29-26.02-141.65c-11.74-25.83-25.24-50.32-40.21-74.39
				C1841.64,1133.97,1831.48,1139.9,1834.65,1146.16L1834.65,1146.16z"/>
			<path class="st17" d="M1818.67,1194.49c21.3,33.7,42.62,68.37,55.27,106.4c6.01,18.07,10.07,37.15,11.08,56.2
				c0.52,9.92,0.12,20.24-1.05,30.1c-1.16,9.79-4.98,18.91-6.28,28.63c-0.84,6.3,7.45,9.33,11.22,4.49
				c6.28-8.09,8.82-18.49,11.22-28.3c2.52-10.27,3.95-20.15,4.06-30.77c0.22-21.47-3.27-42.22-10.08-62.57
				c-13.86-41.4-39.96-77.13-65.2-112.17C1823.95,1179.59,1814.28,1187.55,1818.67,1194.49L1818.67,1194.49z"/>
			<path class="st17" d="M1033.82,939.89c-57.08,114.11-78.51,252.31-48.61,377.3c3.84,16.05,8.71,31.92,15.68,46.9
				c6.63,14.26,16.81,32.08,30.68,40.31c5.66,3.36,14.37-1.53,11.04-8.63c-2.95-6.29-7.16-11.63-10.83-17.5
				c-3.73-5.96-6.79-12.31-9.87-18.63c-6.25-12.79-11.13-26.26-14.74-40.02c-7.72-29.37-11.43-60.02-13.23-90.28
				c-3.7-61.81,2.43-124.55,18.71-184.33c9.27-34.02,21.71-67.08,37.05-98.82C1054.5,936.27,1038.71,930.13,1033.82,939.89
				L1033.82,939.89z"/>
			<path class="st17" d="M991.17,972.12c-48.77,99.83-56.08,216.22-22.91,321.99c4.66,14.87,10.12,29.39,16.75,43.5
				c6.68,14.22,13.62,28.94,23.48,41.23c5.07,6.32,15.13,0.39,12.22-7.14c-4.79-12.41-11.24-24.08-16.48-36.32
				c-5.24-12.23-10.01-24.73-14.39-37.29c-8.66-24.84-14.9-50.44-18.84-76.44c-7.98-52.65-7.02-106,3.21-158.26
				c5.87-29.97,15.14-59.15,27.39-87.12C1004.52,969.59,994.31,965.69,991.17,972.12L991.17,972.12z"/>
			<path class="st17" d="M1413.13,735.69c-13.2-10.57-26.39-19.22-42.12-25.73c-15.87-6.57-32.49-11.42-49.49-13.94
				c-16.57-2.46-33.43-3.08-50.15-2.07c-8.31,0.5-16,1.96-24.08,3.84c-9.16,2.12-17.75,3.88-25.16,9.88
				c-8.24,6.67-4.18,19.35,5.85,21.11c8.03,1.41,15.3-0.27,23.34-1.09c7.18-0.74,14.47-0.9,21.69-1.35
				c14.87-0.92,29.8-0.11,44.52,2.08c29.21,4.34,58.48,13.37,85.12,26.06C1414.09,759.91,1422.42,743.13,1413.13,735.69
				L1413.13,735.69z"/>
			<path class="st17" d="M1637.42,797.92c17.05-11.91,36.75-18.26,57.47-19.01c8.39-0.3,19.45,0.95,27.09,2.85
				c11.27,2.81,21.61,9.54,33.09,10.54c12,1.05,17.7-11.52,11.83-20.91c-7.37-11.8-24.16-16.89-37.17-19.96
				c-12.36-2.91-25.33-3.67-37.98-2.64c-25.24,2.06-50.9,12.52-68.93,30.44C1612.21,789.78,1624.62,806.87,1637.42,797.92
				L1637.42,797.92z"/>
			<path class="st17" d="M1135.99,933.36c-1.75,2.22-2.62,3.06-5.39,4.94c-0.31,0.21-0.62,0.42-0.94,0.61
				c0.73-0.41,0.83-0.47,0.3-0.18c-0.54,0.29-1.08,0.57-1.63,0.83c-1.35,0.64-2.74,1.14-4.15,1.63c-1.86,0.64,1.56-0.22-0.51,0.14
				c-0.6,0.1-1.2,0.25-1.81,0.34c-0.97,0.16-3.19,0.8-4.07,0.41c1.34,0.01,1.62,0.01,0.85,0c-0.37,0-0.73-0.02-1.1-0.04
				c-0.73-0.04-1.47-0.11-2.2-0.2c-0.74-0.09-1.46-0.25-2.2-0.37c-2.21-0.35,2.27,0.79,0.05-0.05c1.66,1.25,3.33,2.49,4.99,3.74
				c-1.41-1.83-3.17-3.02-5.05-4.27c-5.58-3.72-12.7-3.4-17.48,1.49c-4.46,4.57-5.37,12.39-1.05,17.51
				c5.24,6.21,10.49,12.42,15.73,18.63c2.56,3.03,5.02,6.19,7.76,9.05c1.38,1.44,2.79,2.86,4.18,4.29c1.23,1.26,2.83,3.22,4.11,4.1
				c2.25,1.52,4.55,2.15,7.21,2.74c-2.04-0.81-4.07-1.63-6.11-2.44c1.65,1.33,3.31,2.66,4.96,3.99c4.56,3.67,11.44,2.69,15.34-1.31
				c4.38-4.48,4.02-10.29,0.92-15.37c-1.13-1.86-2.27-3.72-3.4-5.59c0.87,2.07,1.74,4.14,2.62,6.2c-0.46-5.53-4.77-10.08-8.17-14.23
				c-2.52-3.07-5.32-5.93-7.99-8.87c-5.36-5.89-10.71-11.79-16.07-17.68c-2.92,7.17-5.84,14.34-8.76,21.51
				c3.45-0.05,6.19-1.18,9.18-3.01c-1.91,0.81-3.83,1.61-5.74,2.42c15.88-0.89,30.82-9.43,37.07-24.56
				C1150.39,932.71,1140.6,927.51,1135.99,933.36L1135.99,933.36z"/>
			<path class="st17" d="M685.33,300.25c-32.14-43.76-68.68-83.53-109.73-119.07c0.09,7.65,0.19,15.31,0.28,22.96
				c24.79-17.52,50.45-33.78,77.1-48.33c13.91-7.59,27.93-14.95,42.21-21.83c2.68-1.29,5.36-2.57,8.05-3.83
				c2.56-1.2,7.56-4.71,10.42-4.63c2.79,0.08,5.66,5.41,7.93,8.87c14.1,21.54,19.73,47.94,22.38,73.17
				c1.39,13.29,1.73,26.53,2.42,39.86c0.36,7.05,1.36,14,1.58,21.11c0.23,7.33,0.3,13.67,2.67,20.67
				c2.99,8.81,15.28,7.32,18.66-0.15c5.05-11.17,4.3-24.53,6.3-36.51c1.99-11.98,0.98-25.19,0.57-37.29
				c-0.83-24.3-5.23-48.96-14.33-71.57c-8.49-21.09-24.65-54.7-52.43-49.46c-12.87,2.43-25.34,10.2-36.9,16.08
				c-12.37,6.29-24.57,12.9-36.56,19.89c-26.86,15.67-52.84,32.69-77.82,51.2c-7.88,5.84-6.72,17.17,0.28,22.96
				c39.81,32.95,76.75,69.54,109.66,109.39C677.04,324.64,693.7,311.64,685.33,300.25L685.33,300.25z"/>
			<path class="st17" d="M688.31,209.34c5.41,25.65,11.73,51.23,19.83,76.18c3.84,11.81,7.02,24.92,12.86,35.9
				c6.25,11.74,11.23,24.76,19.31,35.38c4.32,5.67,14.54,1.77,13.16-5.54c-2.33-12.27-7.88-23.58-10.99-35.65
				c-3.26-12.65-9.32-24.88-13.78-37.17c-8.8-24.26-17.06-48.67-24.04-73.52C702.06,195.65,686.32,199.91,688.31,209.34
				L688.31,209.34z"/>
			<path class="st17" d="M744.5,150.27c14.49,2.83,28.82,6.08,43.41,8.49c7.26,1.2,14.51,2.51,21.79,3.6
				c6.23,0.93,12.63,1.27,18.78,2.71c1.78,0.42,3.54,0.98,5.24,1.76c1.55,0.7,2.87,1.49,3.57,2.65c-0.6-1.01,0.32,0.55,0.4,1.12
				c0.13,0.92,0.09,1.72-0.03,2.65c-0.41,3.22-1.96,6.33-3.22,9.28c-2.77,6.51-5.75,12.92-8.24,19.54
				c-2.79,7.41-6.71,14.73-5.9,22.81c0.66,6.58,8.73,9.39,13.72,5.59c6.98-5.31,10.25-15.24,13.95-23
				c3.49-7.31,7.05-14.92,9.68-22.58c2.73-7.97,3.79-16.52,0.16-24.42c-3.09-6.71-9.21-11.46-15.92-14.19
				c-13.36-5.45-29.45-5.18-43.61-6.2c-17.44-1.26-34.8-1.72-52.24-2.47C737.85,137.26,736.4,148.68,744.5,150.27L744.5,150.27z"/>
			<path class="st17" d="M1103.58,523.01c-14.31,95.04-17.3,202.16,48.68,279.97c14.65,17.27,34.48,34.24,55.96,42.12
				c4.95,1.82,8.94-4.91,4.56-8.17c-10.48-7.8-21.42-14.85-30.89-23.94c-8.89-8.53-17.19-18.14-24.57-28
				c-15.72-21.01-27.44-44.74-35.41-69.71c-19.58-61.37-15.9-128.01-8.47-191.06C1114.2,517.84,1104.53,516.68,1103.58,523.01
				L1103.58,523.01z"/>
			<path class="st17" d="M2051.49,621.65c16.31,64.12,33.33,134.28,19.48,200.4c-10.92,52.13-45.21,97.22-90.27,124.95
				c-11.98,7.37-24.97,13.45-38.14,18.39c-13.8,5.17-28.22,7.88-42.24,12.23c-4.45,1.38-3.17,8.4,1.2,8.79
				c26.32,2.37,55.13-8.33,77.82-20.82c24.23-13.33,45.8-30.97,63.54-52.2c41.05-49.14,54.12-113.17,45.61-175.81
				c-5.49-40.4-18-79.05-30.17-117.79C2057.12,615.98,2050.49,617.72,2051.49,621.65L2051.49,621.65z"/>
			<path class="st17" d="M707.17,405.16c-12.7,22.07-3.52,46.93,7.36,67.73c11.5,22,25.51,42.52,41.52,61.49
				c31.49,37.32,73.13,69.13,118.65,87.31c4.92,1.97,9.53-5.51,4.68-8.39c-19.15-11.4-38.64-22.73-55.84-37.01
				c-17.33-14.37-34.09-29.69-49.38-46.23c-15.26-16.51-28.88-34.22-41.26-52.98c-12.48-18.91-29.79-44.82-18.43-67.86
				C716.54,405.01,709.56,401,707.17,405.16L707.17,405.16z"/>
			<path class="st17" d="M1562.07,393.06c4.59,106.87,8.08,213.77-7.23,320c-4.3,29.86-11.2,59.1-17.22,88.62
				c-0.9,4.42,6.05,6.11,7.6,1.94c18.51-49.86,25.42-104.86,29.6-157.63c4.26-53.87,4.35-107.99,3-161.98
				c-0.78-30.89-2.06-61.76-3.36-92.63C1574.11,383.34,1561.73,385.09,1562.07,393.06L1562.07,393.06z"/>
			<path class="st17" d="M1773.52,1473.09c8.42,24.17,16.08,48.64,24.2,72.92c6.86,20.51,16.3,42.05,14.1,64.18
				c-1.95,19.66-12.78,31.08-30.99,37.48c-9.78,3.44-19.85,6.3-30.17,7.52c-10.01,1.18-20.01-0.1-29.91-1.61
				c-8.45-1.29-16.5,10.5-9.74,17.22c10.02,9.97,21.39,13.5,35.51,13.26c12.98-0.22,25.52-3.27,37.92-6.9
				c25.5-7.47,45.79-23.43,52.64-49.89c6.79-26.25-0.92-51.96-10.78-76.35c-11.52-28.48-24.73-56.26-36.53-84.59
				C1785.38,1455.8,1769.82,1462.48,1773.52,1473.09L1773.52,1473.09z"/>
			<path class="st17" d="M1258.99,2034.8c0.42,15.45,2.76,30.74,6.17,45.81c1.8,7.95,4.39,15.8,7.03,23.5
				c2.73,7.95,5.42,15.97,11.05,22.41c7.51,8.59,20.83,2.81,20.05-8.45c-0.56-8.17-3.94-15.65-6.58-23.29
				c-2.4-6.92-4.33-13.97-6.6-20.93c-4.48-13.72-7.95-27.71-11.4-41.72C1275.62,2019.65,1258.64,2021.94,1258.99,2034.8
				L1258.99,2034.8z"/>
			<path class="st17" d="M1674.11,2037.87c-5.29,10.61-10.12,21.58-13.12,33.07c-1.61,6.16-3.4,12.47-4.33,18.78
				c-0.34,2.28-0.04,4.24,0.21,6.47c-0.22-1.97,0.07,5.94,0.04,3.51c0.04,3.96,0.11,7.68,3.01,10.77c3.15,3.35,7.37,3.99,11.27,1.38
				c3.15-2.1,4.24-5.14,5.23-8.58c0.94-3.25,2.59-6.22,3.28-9.51c1.19-5.71,1.86-11.53,3.1-17.25c2.36-10.91,4.51-21.58,7.65-32.15
				c1.35-4.55-0.23-9.56-4.92-11.43C1680.82,2031.07,1676.24,2033.6,1674.11,2037.87L1674.11,2037.87z"/>
			<path class="st17" d="M1305.62,1270.22c0.09,1.89,0.14,3.79,0.19,5.68c0.06,2.27,0.03-2.01,0.01,0.41
				c-0.01,0.79-0.01,1.58-0.02,2.37c-0.03,1.72-0.09,3.44-0.17,5.16c-0.05,0.93-0.11,1.86-0.12,2.79c0.01,1.06,0.01,2.11,0.02,3.17
				c0.01,0.54,0.02,1.08,0.03,1.62c-0.01-1.71-0.01-2.1-0.01-1.17c0,0.4,0,0.8-0.01,1.21c-0.01,0.8-0.02,1.61-0.04,2.41
				c-0.04,1.88-0.13,3.76-0.23,5.63c-0.08,1.64-0.06,3.24-0.06,4.9c-0.02-3.69-0.01-0.73-0.01-0.04c-0.03,3.53-0.21,6.86,1.41,10.14
				c1.92,3.87,5.1,6.68,9.51,7.22c4.1,0.5,8.58-1.26,10.98-4.7c3.68-5.29,3.71-11.49,3.62-17.67c-0.05-3.62-0.21-7.25-0.49-10.86
				c-0.61-7.91-3.07-15.92-5.32-23.49c-0.67-2.26-3.41-4.74-5.58-5.49c-2.1-0.73-4.17-0.87-6.33-0.28
				C1307.9,1260.6,1305.37,1265.14,1305.62,1270.22L1305.62,1270.22z"/>
			<path class="st17" d="M1220.95,1337.95c-14.79-6.78-31.89,2.5-44,11.01c-12.54,8.81-23,21.59-28.33,36.02
				c-5.38,14.56-5.42,30.45-1.19,45.29c3.97,13.92,13.32,31.23,28.75,33.96c7.55,1.34,13.67-7.25,10.66-14.04
				c-2.63-5.93-7.04-9.83-10.63-15.07c-2.25-3.28-4.55-8.37-5.75-12.73c-2.65-9.63-2.2-20.46,1.27-29.85
				c3.79-10.26,10.82-18.76,19.55-25.24c9.79-7.26,22.29-9.65,31.29-17.97C1226.33,1345.87,1225.75,1340.15,1220.95,1337.95
				L1220.95,1337.95z"/>
			<path class="st17" d="M781.38,1133.78c42.63,124.85,192.95,168.12,312.49,154.04c16.9-1.99,33.47-5.6,49.83-10.25
				c7.53-2.14,14.89-5.01,22.15-7.93c8.63-3.47,17.11-6.52,23.09-13.96c4.87-6.06,0.73-16.87-7.38-17.22
				c-13.39-0.58-27.03,6.91-40.03,10.07c-13.36,3.24-26.66,6.09-40.26,8.2c-28.47,4.42-57.34,5.25-86.02,2.6
				c-56.97-5.26-112.72-23.19-158.41-58.25c-25.19-19.33-47.38-44.61-61.8-72.99C790.72,1119.61,778.29,1124.73,781.38,1133.78
				L781.38,1133.78z"/>
			<path class="st17" d="M1457.1,1075.64c4.88,7.37,12.94,12.03,20.85,15.6c7.74,3.5,16.12,5.85,24.58,6.62
				c8.27,0.75,16.8,0.45,24.91-1.42c2.22-0.51,3.45-0.92,5.3-1.99c-0.14,0.08,3.35-1.65,1.88-1.01c1.86-0.81,3.76-1.52,5.6-2.41
				c1.85-0.89,3.65-1.86,5.42-2.9c2.87-1.69,4.23-3.73,5.74-6.63c2.37-4.56-1.76-9.47-6.07-10.25c-3.84-0.69-7.14,0.53-10.67,1.41
				c-1.74,0.43-3.55,0.89-5.33,1.07c0.85-0.09-0.66-0.13-0.81-0.13c-1.36,0.02-2.75-0.07-4.11,0.06c-3.46,0.32-6.85,1-10.34,1.16
				c-1.02,0.05-2.04,0.07-3.07,0.09c-0.38,0.01-1.88,0.01-0.68,0.02c-1.84-0.02-3.68-0.12-5.51-0.27
				c-6.72-0.56-13.35-1.62-18.86-3.41c-6.74-2.19-12.96-5.61-19.65-7.83C1458.59,1060.89,1452.74,1069.07,1457.1,1075.64
				L1457.1,1075.64z"/>
		</g>
		<g>
			<path class="st19" d="M1142.31,1166.05c0.05,0.01,0.5-0.39,0.68-0.74c-0.08,0.08-0.13,0.16-0.22,0.24
				C1142.62,1165.73,1142.51,1165.88,1142.31,1166.05z"/>
			<path class="st19" d="M1142.14,1144.07c-2.52-0.59-5.09,0.14-7.53,1.01c-9.05,0.97-14.18,12.64-15.07,20.72
				c-0.53,4.79,2.39,9.26,7.06,10.52c4.9,1.32,9.1-1.22,11.4-5.52c0.55-1.02,0.48-0.54-0.06,0.1c0.45-0.53,0.81-1.14,1.25-1.68
				c0.08-0.1,0.3-0.4,0.49-0.65c0.76-0.69,1.49-1.39,2.2-2.13c0.09-0.09,0.27-0.25,0.44-0.39c-0.03,0,0.04-0.1,0.45-0.48
				c0.01-0.01,0.01-0.01,0.01-0.02c0.11-0.12,0.26-0.26,0.29-0.36c-0.01,0.04-0.06,0.08-0.07,0.12c1.35-1.3,2.28-2.62,2.95-4.01
				c0.23-0.31,0.43-0.58,0.5-0.68c0.32-0.31,0.73-0.71,1.3-1.25c0.65-0.88,1.17-1.82,1.55-2.83
				C1151.69,1150.71,1147.77,1145.39,1142.14,1144.07z"/>
		</g>
		<path class="st19" d="M1183.91,1153.68c0.12-3.49-2.54-7.6-6.64-6.72c-1.79,0.38-3.59,0.69-5.25,1.46
			c-1.23,0.56-2.12,1.29-3.1,2.2c-0.48,0.29-0.56,0.42-0.24,0.37c0.96-0.05,0.3,0.34-1.97,1.18c-3.17,2.58-5.08,6.77-7.21,10.19
			c-2.13,3.42-2.42,7.57,0.64,10.6c2.62,2.61,7.55,3.64,10.59,0.9c3.62-3.26,7.71-6.18,9.84-10.45c0.97-1.4,2-2.83,2.55-4.38
			C1183.76,1157.23,1183.84,1155.55,1183.91,1153.68z"/>
		<path class="st19" d="M1760.98,1146.93c-0.94-2.7-3.38-4.58-6.05-5.3c-4.08-1.1-8.34,0.86-10.27,4.43
			c-0.65,0.24-1.29,0.55-1.92,1.01c-1.71,1.27-3.19,3.58-3.38,5.73c-0.43,4.73,2.61,8.86,7.34,9.64c3.28,0.54,6.64-0.42,9.35-2.28
			c1.06-0.73,2.08-1.72,2.87-2.73c0.83-1.07,1.65-2.37,2.01-3.7c0.6-1.47,0.81-2.99,0.62-4.57
			C1761.36,1148.42,1761.17,1147.68,1760.98,1146.93z"/>
		<path class="st19" d="M1776.09,1140.77c-7.87,0-6.3,12.15,1.49,12.15C1785.45,1152.92,1783.88,1140.77,1776.09,1140.77z"/>
		<path class="st20" d="M1170.02,1035.37c1.8-59.69,18.26-124.05,65.81-160.17c43.23-32.83,107.96-33.73,152.08-2.1
			c-23.07-48.87-84.24-77.44-135.44-60.14c-30.17,10.19-61.08,27.4-77.11,54.91C1145.38,919.35,1142.03,981.25,1170.02,1035.37z"/>
		<path class="st20" d="M1712.17,853.04c31.7,8.92,58.99,33.56,69.31,64.83c3.39,10.26,4.99,21.03,5.93,31.79
			c2.35,27.05,0.17,55.66-13.94,78.87c1.51-27.36,2.95-55.36-4.82-81.63c-9-30.41-30.6-56.89-58.58-71.81
			c-26.5-14.13-58.42-17.74-87.41-9.99C1649.7,850.06,1682.09,844.58,1712.17,853.04z"/>
	</g>
	<g>
	</g>
	<g>
	</g>
	<g>
	</g>
	<g>
	</g>
	<g>
	</g>
	<g>
	</g>
	<g>
	</g>
	<g>
	</g>
	<g>
	</g>
	<g>
	</g>
	<g>
	</g>
	<g>
	</g>
	<g>
	</g>
	<g>
	</g>
	<g>
	</g>
</g>
</svg>
